<?xml version="1.0" encoding="UTF-8" standalone="no"?>

<svg width="100mm" height="100mm" viewBox="0 0 100 100" xmlns="http://www.w3.org/2000/svg">
<rect width="100%" height="100%" fill="black"/>
<g fill="white">
<circle cx="2.5000" cy="57.5000" r="0.141"/>
<circle cx="2.5000" cy="62.5000" r="0.238"/>
<circle cx="2.5000" cy="67.5000" r="0.326"/>
<circle cx="2.5000" cy="72.5000" r="0.450"/>
<circle cx="2.5000" cy="77.5000" r="0.582"/>
<circle cx="2.5000" cy="82.5000" r="0.715"/>
<circle cx="2.5000" cy="87.5000" r="0.838"/>
<circle cx="2.5000" cy="92.5000" r="0.988"/>
<circle cx="2.5000" cy="97.5000" r="1.112"/>
<circle cx="7.5000" cy="52.5000" r="0.132"/>
<circle cx="7.5000" cy="57.5000" r="0.221"/>
<circle cx="7.5000" cy="62.5000" r="0.335"/>
<circle cx="7.5000" cy="67.5000" r="0.450"/>
<circle cx="7.5000" cy="72.5000" r="0.574"/>
<circle cx="7.5000" cy="77.5000" r="0.715"/>
<circle cx="7.5000" cy="82.5000" r="0.847"/>
<circle cx="7.5000" cy="87.5000" r="0.971"/>
<circle cx="7.5000" cy="92.5000" r="1.121"/>
<circle cx="7.5000" cy="97.5000" r="1.262"/>
<circle cx="12.5000" cy="47.5000" r="0.132"/>
<circle cx="12.5000" cy="52.5000" r="0.221"/>
<circle cx="12.5000" cy="57.5000" r="0.335"/>
<circle cx="12.5000" cy="62.5000" r="0.450"/>
<circle cx="12.5000" cy="67.5000" r="0.565"/>
<circle cx="12.5000" cy="72.5000" r="0.706"/>
<circle cx="12.5000" cy="77.5000" r="0.838"/>
<circle cx="12.5000" cy="82.5000" r="0.971"/>
<circle cx="12.5000" cy="87.5000" r="1.129"/>
<circle cx="12.5000" cy="92.5000" r="1.262"/>
<circle cx="12.5000" cy="97.5000" r="1.412"/>
<circle cx="17.5000" cy="42.5000" r="0.141"/>
<circle cx="17.5000" cy="47.5000" r="0.221"/>
<circle cx="17.5000" cy="52.5000" r="0.344"/>
<circle cx="17.5000" cy="57.5000" r="0.450"/>
<circle cx="17.5000" cy="62.5000" r="0.582"/>
<circle cx="17.5000" cy="67.5000" r="0.697"/>
<circle cx="17.5000" cy="72.5000" r="0.838"/>
<circle cx="17.5000" cy="77.5000" r="0.988"/>
<circle cx="17.5000" cy="82.5000" r="1.121"/>
<circle cx="17.5000" cy="87.5000" r="1.262"/>
<circle cx="17.5000" cy="92.5000" r="1.403"/>
<circle cx="17.5000" cy="97.5000" r="1.544"/>
<circle cx="22.5000" cy="37.5000" r="0.150"/>
<circle cx="22.5000" cy="42.5000" r="0.238"/>
<circle cx="22.5000" cy="47.5000" r="0.326"/>
<circle cx="22.5000" cy="52.5000" r="0.450"/>
<circle cx="22.5000" cy="57.5000" r="0.574"/>
<circle cx="22.5000" cy="62.5000" r="0.697"/>
<circle cx="22.5000" cy="67.5000" r="0.838"/>
<circle cx="22.5000" cy="72.5000" r="0.971"/>
<circle cx="22.5000" cy="77.5000" r="1.121"/>
<circle cx="22.5000" cy="82.5000" r="1.253"/>
<circle cx="22.5000" cy="87.5000" r="1.412"/>
<circle cx="22.5000" cy="92.5000" r="1.544"/>
<circle cx="22.5000" cy="97.5000" r="1.676"/>
<circle cx="27.5000" cy="32.5000" r="0.132"/>
<circle cx="27.5000" cy="37.5000" r="0.221"/>
<circle cx="27.5000" cy="42.5000" r="0.326"/>
<circle cx="27.5000" cy="47.5000" r="0.441"/>
<circle cx="27.5000" cy="52.5000" r="0.565"/>
<circle cx="27.5000" cy="57.5000" r="0.715"/>
<circle cx="27.5000" cy="62.5000" r="0.847"/>
<circle cx="27.5000" cy="67.5000" r="0.988"/>
<circle cx="27.5000" cy="72.5000" r="1.121"/>
<circle cx="27.5000" cy="77.5000" r="1.271"/>
<circle cx="27.5000" cy="82.5000" r="1.394"/>
<circle cx="27.5000" cy="87.5000" r="1.535"/>
<circle cx="27.5000" cy="92.5000" r="1.668"/>
<circle cx="27.5000" cy="97.5000" r="1.791"/>
<circle cx="32.5000" cy="27.5000" r="0.132"/>
<circle cx="32.5000" cy="32.5000" r="0.221"/>
<circle cx="32.5000" cy="37.5000" r="0.326"/>
<circle cx="32.5000" cy="42.5000" r="0.450"/>
<circle cx="32.5000" cy="47.5000" r="0.565"/>
<circle cx="32.5000" cy="52.5000" r="0.697"/>
<circle cx="32.5000" cy="57.5000" r="0.838"/>
<circle cx="32.5000" cy="62.5000" r="0.971"/>
<circle cx="32.5000" cy="67.5000" r="1.112"/>
<circle cx="32.5000" cy="72.5000" r="1.262"/>
<circle cx="32.5000" cy="77.5000" r="1.403"/>
<circle cx="32.5000" cy="82.5000" r="1.544"/>
<circle cx="32.5000" cy="87.5000" r="1.676"/>
<circle cx="32.5000" cy="92.5000" r="1.791"/>
<circle cx="32.5000" cy="97.5000" r="1.906"/>
<circle cx="37.5000" cy="22.5000" r="0.141"/>
<circle cx="37.5000" cy="27.5000" r="0.221"/>
<circle cx="37.5000" cy="32.5000" r="0.326"/>
<circle cx="37.5000" cy="37.5000" r="0.450"/>
<circle cx="37.5000" cy="42.5000" r="0.574"/>
<circle cx="37.5000" cy="47.5000" r="0.706"/>
<circle cx="37.5000" cy="52.5000" r="0.847"/>
<circle cx="37.5000" cy="57.5000" r="0.971"/>
<circle cx="37.5000" cy="62.5000" r="1.121"/>
<circle cx="37.5000" cy="67.5000" r="1.253"/>
<circle cx="37.5000" cy="72.5000" r="1.403"/>
<circle cx="37.5000" cy="77.5000" r="1.535"/>
<circle cx="37.5000" cy="82.5000" r="1.676"/>
<circle cx="37.5000" cy="87.5000" r="1.791"/>
<circle cx="37.5000" cy="92.5000" r="1.906"/>
<circle cx="37.5000" cy="97.5000" r="2.021"/>
<circle cx="42.5000" cy="17.5000" r="0.141"/>
<circle cx="42.5000" cy="22.5000" r="0.238"/>
<circle cx="42.5000" cy="27.5000" r="0.326"/>
<circle cx="42.5000" cy="32.5000" r="0.450"/>
<circle cx="42.5000" cy="37.5000" r="0.574"/>
<circle cx="42.5000" cy="42.5000" r="0.706"/>
<circle cx="42.5000" cy="47.5000" r="0.838"/>
<circle cx="42.5000" cy="52.5000" r="0.988"/>
<circle cx="42.5000" cy="57.5000" r="1.121"/>
<circle cx="42.5000" cy="62.5000" r="1.262"/>
<circle cx="42.5000" cy="67.5000" r="1.403"/>
<circle cx="42.5000" cy="72.5000" r="1.544"/>
<circle cx="42.5000" cy="77.5000" r="1.676"/>
<circle cx="42.5000" cy="82.5000" r="1.791"/>
<circle cx="42.5000" cy="87.5000" r="1.915"/>
<circle cx="42.5000" cy="92.5000" r="2.021"/>
<circle cx="42.5000" cy="97.5000" r="2.118"/>
<circle cx="47.5000" cy="12.5000" r="0.132"/>
<circle cx="47.5000" cy="17.5000" r="0.221"/>
<circle cx="47.5000" cy="22.5000" r="0.335"/>
<circle cx="47.5000" cy="27.5000" r="0.441"/>
<circle cx="47.5000" cy="32.5000" r="0.582"/>
<circle cx="47.5000" cy="37.5000" r="0.715"/>
<circle cx="47.5000" cy="42.5000" r="0.821"/>
<circle cx="47.5000" cy="47.5000" r="0.971"/>
<circle cx="47.5000" cy="52.5000" r="1.112"/>
<circle cx="47.5000" cy="57.5000" r="1.262"/>
<circle cx="47.5000" cy="62.5000" r="1.394"/>
<circle cx="47.5000" cy="67.5000" r="1.544"/>
<circle cx="47.5000" cy="72.5000" r="1.668"/>
<circle cx="47.5000" cy="77.5000" r="1.791"/>
<circle cx="47.5000" cy="82.5000" r="1.915"/>
<circle cx="47.5000" cy="87.5000" r="2.021"/>
<circle cx="47.5000" cy="92.5000" r="2.109"/>
<circle cx="47.5000" cy="97.5000" r="2.179"/>
<circle cx="52.5000" cy="7.5000" r="0.132"/>
<circle cx="52.5000" cy="12.5000" r="0.221"/>
<circle cx="52.5000" cy="17.5000" r="0.326"/>
<circle cx="52.5000" cy="22.5000" r="0.450"/>
<circle cx="52.5000" cy="27.5000" r="0.574"/>
<circle cx="52.5000" cy="32.5000" r="0.697"/>
<circle cx="52.5000" cy="37.5000" r="0.838"/>
<circle cx="52.5000" cy="42.5000" r="0.988"/>
<circle cx="52.5000" cy="47.5000" r="1.121"/>
<circle cx="52.5000" cy="52.5000" r="1.262"/>
<circle cx="52.5000" cy="57.5000" r="1.412"/>
<circle cx="52.5000" cy="62.5000" r="1.544"/>
<circle cx="52.5000" cy="67.5000" r="1.676"/>
<circle cx="52.5000" cy="72.5000" r="1.791"/>
<circle cx="52.5000" cy="77.5000" r="1.906"/>
<circle cx="52.5000" cy="82.5000" r="2.021"/>
<circle cx="52.5000" cy="87.5000" r="2.100"/>
<circle cx="52.5000" cy="92.5000" r="2.179"/>
<circle cx="52.5000" cy="97.5000" r="2.250"/>
<circle cx="57.5000" cy="2.5000" r="0.141"/>
<circle cx="57.5000" cy="7.5000" r="0.221"/>
<circle cx="57.5000" cy="12.5000" r="0.326"/>
<circle cx="57.5000" cy="17.5000" r="0.450"/>
<circle cx="57.5000" cy="22.5000" r="0.574"/>
<circle cx="57.5000" cy="27.5000" r="0.706"/>
<circle cx="57.5000" cy="32.5000" r="0.847"/>
<circle cx="57.5000" cy="37.5000" r="0.988"/>
<circle cx="57.5000" cy="42.5000" r="1.121"/>
<circle cx="57.5000" cy="47.5000" r="1.262"/>
<circle cx="57.5000" cy="52.5000" r="1.403"/>
<circle cx="57.5000" cy="57.5000" r="1.535"/>
<circle cx="57.5000" cy="62.5000" r="1.668"/>
<circle cx="57.5000" cy="67.5000" r="1.791"/>
<circle cx="57.5000" cy="72.5000" r="1.906"/>
<circle cx="57.5000" cy="77.5000" r="2.021"/>
<circle cx="57.5000" cy="82.5000" r="2.118"/>
<circle cx="57.5000" cy="87.5000" r="2.179"/>
<circle cx="57.5000" cy="92.5000" r="2.250"/>
<circle cx="57.5000" cy="97.5000" r="2.250"/>
<circle cx="62.5000" cy="2.5000" r="0.238"/>
<circle cx="62.5000" cy="7.5000" r="0.335"/>
<circle cx="62.5000" cy="12.5000" r="0.450"/>
<circle cx="62.5000" cy="17.5000" r="0.574"/>
<circle cx="62.5000" cy="22.5000" r="0.715"/>
<circle cx="62.5000" cy="27.5000" r="0.821"/>
<circle cx="62.5000" cy="32.5000" r="0.971"/>
<circle cx="62.5000" cy="37.5000" r="1.121"/>
<circle cx="62.5000" cy="42.5000" r="1.262"/>
<circle cx="62.5000" cy="47.5000" r="1.403"/>
<circle cx="62.5000" cy="52.5000" r="1.535"/>
<circle cx="62.5000" cy="57.5000" r="1.676"/>
<circle cx="62.5000" cy="62.5000" r="1.800"/>
<circle cx="62.5000" cy="67.5000" r="1.915"/>
<circle cx="62.5000" cy="72.5000" r="2.021"/>
<circle cx="62.5000" cy="77.5000" r="2.118"/>
<circle cx="62.5000" cy="82.5000" r="2.197"/>
<circle cx="62.5000" cy="87.5000" r="2.241"/>
<circle cx="62.5000" cy="92.5000" r="2.250"/>
<circle cx="62.5000" cy="97.5000" r="2.250"/>
<circle cx="67.5000" cy="2.5000" r="0.335"/>
<circle cx="67.5000" cy="7.5000" r="0.441"/>
<circle cx="67.5000" cy="12.5000" r="0.591"/>
<circle cx="67.5000" cy="17.5000" r="0.697"/>
<circle cx="67.5000" cy="22.5000" r="0.856"/>
<circle cx="67.5000" cy="27.5000" r="0.971"/>
<circle cx="67.5000" cy="32.5000" r="1.121"/>
<circle cx="67.5000" cy="37.5000" r="1.262"/>
<circle cx="67.5000" cy="42.5000" r="1.403"/>
<circle cx="67.5000" cy="47.5000" r="1.544"/>
<circle cx="67.5000" cy="52.5000" r="1.676"/>
<circle cx="67.5000" cy="57.5000" r="1.791"/>
<circle cx="67.5000" cy="62.5000" r="1.915"/>
<circle cx="67.5000" cy="67.5000" r="2.021"/>
<circle cx="67.5000" cy="72.5000" r="2.109"/>
<circle cx="67.5000" cy="77.5000" r="2.179"/>
<circle cx="67.5000" cy="82.5000" r="2.250"/>
<circle cx="67.5000" cy="87.5000" r="2.250"/>
<circle cx="67.5000" cy="92.5000" r="2.250"/>
<circle cx="67.5000" cy="97.5000" r="2.250"/>
<circle cx="72.5000" cy="2.5000" r="0.450"/>
<circle cx="72.5000" cy="7.5000" r="0.582"/>
<circle cx="72.5000" cy="12.5000" r="0.706"/>
<circle cx="72.5000" cy="17.5000" r="0.847"/>
<circle cx="72.5000" cy="22.5000" r="0.988"/>
<circle cx="72.5000" cy="27.5000" r="1.121"/>
<circle cx="72.5000" cy="32.5000" r="1.262"/>
<circle cx="72.5000" cy="37.5000" r="1.403"/>
<circle cx="72.5000" cy="42.5000" r="1.544"/>
<circle cx="72.5000" cy="47.5000" r="1.668"/>
<circle cx="72.5000" cy="52.5000" r="1.791"/>
<circle cx="72.5000" cy="57.5000" r="1.906"/>
<circle cx="72.5000" cy="62.5000" r="2.021"/>
<circle cx="72.5000" cy="67.5000" r="2.100"/>
<circle cx="72.5000" cy="72.5000" r="2.179"/>
<circle cx="72.5000" cy="77.5000" r="2.250"/>
<circle cx="72.5000" cy="82.5000" r="2.250"/>
<circle cx="72.5000" cy="87.5000" r="2.250"/>
<circle cx="72.5000" cy="92.5000" r="2.250"/>
<circle cx="72.5000" cy="97.5000" r="2.250"/>
<circle cx="77.5000" cy="2.5000" r="0.591"/>
<circle cx="77.5000" cy="7.5000" r="0.697"/>
<circle cx="77.5000" cy="12.5000" r="0.838"/>
<circle cx="77.5000" cy="17.5000" r="0.971"/>
<circle cx="77.5000" cy="22.5000" r="1.129"/>
<circle cx="77.5000" cy="27.5000" r="1.262"/>
<circle cx="77.5000" cy="32.5000" r="1.403"/>
<circle cx="77.5000" cy="37.5000" r="1.544"/>
<circle cx="77.5000" cy="42.5000" r="1.685"/>
<circle cx="77.5000" cy="47.5000" r="1.791"/>
<circle cx="77.5000" cy="52.5000" r="1.906"/>
<circle cx="77.5000" cy="57.5000" r="2.021"/>
<circle cx="77.5000" cy="62.5000" r="2.109"/>
<circle cx="77.5000" cy="67.5000" r="2.179"/>
<circle cx="77.5000" cy="72.5000" r="2.250"/>
<circle cx="77.5000" cy="77.5000" r="2.250"/>
<circle cx="77.5000" cy="82.5000" r="2.250"/>
<circle cx="77.5000" cy="87.5000" r="2.250"/>
<circle cx="77.5000" cy="92.5000" r="2.250"/>
<circle cx="77.5000" cy="97.5000" r="2.250"/>
<circle cx="82.5000" cy="2.5000" r="0.706"/>
<circle cx="82.5000" cy="7.5000" r="0.838"/>
<circle cx="82.5000" cy="12.5000" r="0.971"/>
<circle cx="82.5000" cy="17.5000" r="1.129"/>
<circle cx="82.5000" cy="22.5000" r="1.253"/>
<circle cx="82.5000" cy="27.5000" r="1.412"/>
<circle cx="82.5000" cy="32.5000" r="1.544"/>
<circle cx="82.5000" cy="37.5000" r="1.676"/>
<circle cx="82.5000" cy="42.5000" r="1.791"/>
<circle cx="82.5000" cy="47.5000" r="1.915"/>
<circle cx="82.5000" cy="52.5000" r="2.021"/>
<circle cx="82.5000" cy="57.5000" r="2.118"/>
<circle cx="82.5000" cy="62.5000" r="2.197"/>
<circle cx="82.5000" cy="67.5000" r="2.250"/>
<circle cx="82.5000" cy="72.5000" r="2.250"/>
<circle cx="82.5000" cy="77.5000" r="2.250"/>
<circle cx="82.5000" cy="82.5000" r="2.250"/>
<circle cx="82.5000" cy="87.5000" r="2.250"/>
<circle cx="82.5000" cy="92.5000" r="2.250"/>
<circle cx="82.5000" cy="97.5000" r="2.250"/>
<circle cx="87.5000" cy="2.5000" r="0.847"/>
<circle cx="87.5000" cy="7.5000" r="0.971"/>
<circle cx="87.5000" cy="12.5000" r="1.121"/>
<circle cx="87.5000" cy="17.5000" r="1.262"/>
<circle cx="87.5000" cy="22.5000" r="1.412"/>
<circle cx="87.5000" cy="27.5000" r="1.544"/>
<circle cx="87.5000" cy="32.5000" r="1.668"/>
<circle cx="87.5000" cy="37.5000" r="1.791"/>
<circle cx="87.5000" cy="42.5000" r="1.915"/>
<circle cx="87.5000" cy="47.5000" r="2.003"/>
<circle cx="87.5000" cy="52.5000" r="2.109"/>
<circle cx="87.5000" cy="57.5000" r="2.179"/>
<circle cx="87.5000" cy="62.5000" r="2.250"/>
<circle cx="87.5000" cy="67.5000" r="2.250"/>
<circle cx="87.5000" cy="72.5000" r="2.250"/>
<circle cx="87.5000" cy="77.5000" r="2.250"/>
<circle cx="87.5000" cy="82.5000" r="2.250"/>
<circle cx="87.5000" cy="87.5000" r="2.250"/>
<circle cx="87.5000" cy="92.5000" r="2.250"/>
<circle cx="87.5000" cy="97.5000" r="2.250"/>
<circle cx="92.5000" cy="2.5000" r="0.971"/>
<circle cx="92.5000" cy="7.5000" r="1.112"/>
<circle cx="92.5000" cy="12.5000" r="1.262"/>
<circle cx="92.5000" cy="17.5000" r="1.403"/>
<circle cx="92.5000" cy="22.5000" r="1.544"/>
<circle cx="92.5000" cy="27.5000" r="1.668"/>
<circle cx="92.5000" cy="32.5000" r="1.791"/>
<circle cx="92.5000" cy="37.5000" r="1.906"/>
<circle cx="92.5000" cy="42.5000" r="2.021"/>
<circle cx="92.5000" cy="47.5000" r="2.100"/>
<circle cx="92.5000" cy="52.5000" r="2.179"/>
<circle cx="92.5000" cy="57.5000" r="2.250"/>
<circle cx="92.5000" cy="62.5000" r="2.250"/>
<circle cx="92.5000" cy="67.5000" r="2.250"/>
<circle cx="92.5000" cy="72.5000" r="2.250"/>
<circle cx="92.5000" cy="77.5000" r="2.250"/>
<circle cx="92.5000" cy="82.5000" r="2.250"/>
<circle cx="92.5000" cy="87.5000" r="2.250"/>
<circle cx="92.5000" cy="92.5000" r="2.250"/>
<circle cx="92.5000" cy="97.5000" r="2.250"/>
<circle cx="97.5000" cy="2.5000" r="1.121"/>
<circle cx="97.5000" cy="7.5000" r="1.253"/>
<circle cx="97.5000" cy="12.5000" r="1.403"/>
<circle cx="97.5000" cy="17.5000" r="1.544"/>
<circle cx="97.5000" cy="22.5000" r="1.676"/>
<circle cx="97.5000" cy="27.5000" r="1.791"/>
<circle cx="97.5000" cy="32.5000" r="1.915"/>
<circle cx="97.5000" cy="37.5000" r="2.021"/>
<circle cx="97.5000" cy="42.5000" r="2.118"/>
<circle cx="97.5000" cy="47.5000" r="2.179"/>
<circle cx="97.5000" cy="52.5000" r="2.250"/>
<circle cx="97.5000" cy="57.5000" r="2.250"/>
<circle cx="97.5000" cy="62.5000" r="2.250"/>
<circle cx="97.5000" cy="67.5000" r="2.250"/>
<circle cx="97.5000" cy="72.5000" r="2.250"/>
<circle cx="97.5000" cy="77.5000" r="2.250"/>
<circle cx="97.5000" cy="82.5000" r="2.250"/>
<circle cx="97.5000" cy="87.5000" r="2.250"/>
<circle cx="97.5000" cy="92.5000" r="2.250"/>
<circle cx="97.5000" cy="97.5000" r="2.250"/></g></svg>