<?xml version="1.0" encoding="UTF-8" standalone="no"?>

<svg width="100mm" height="100mm" viewBox="0 0 100 100" xmlns="http://www.w3.org/2000/svg">
<rect width="100%" height="100%" fill="black"/>
<g fill="white">
<polygon points="5.0000,52.4029 5.0971,52.5000 5.0000,52.5971 4.9029,52.5000"/>
<polygon points="2.5000,54.9029 2.5971,55.0000 2.5000,55.0971 2.4029,55.0000"/>
<polygon points="5.0000,57.3235 5.1765,57.5000 5.0000,57.6765 4.8235,57.5000"/>
<polygon points="2.5000,59.8147 2.6853,60.0000 2.5000,60.1853 2.3147,60.0000"/>
<polygon points="5.0000,62.2176 5.2824,62.5000 5.0000,62.7824 4.7176,62.5000"/>
<polygon points="2.5000,64.7176 2.7824,65.0000 2.5000,65.2824 2.2176,65.0000"/>
<polygon points="5.0000,67.1118 5.3882,67.5000 5.0000,67.8882 4.6118,67.5000"/>
<polygon points="2.5000,69.6029 2.8971,70.0000 2.5000,70.3971 2.1029,70.0000"/>
<polygon points="5.0000,71.9882 5.5118,72.5000 5.0000,73.0118 4.4882,72.5000"/>
<polygon points="2.5000,74.4882 3.0118,75.0000 2.5000,75.5118 1.9882,75.0000"/>
<polygon points="5.0000,76.8559 5.6441,77.5000 5.0000,78.1441 4.3559,77.5000"/>
<polygon points="2.5000,79.3559 3.1441,80.0000 2.5000,80.6441 1.8559,80.0000"/>
<polygon points="5.0000,81.7235 5.7765,82.5000 5.0000,83.2765 4.2235,82.5000"/>
<polygon points="2.5000,84.2235 3.2765,85.0000 2.5000,85.7765 1.7235,85.0000"/>
<polygon points="5.0000,86.5912 5.9088,87.5000 5.0000,88.4088 4.0912,87.5000"/>
<polygon points="2.5000,89.0912 3.4088,90.0000 2.5000,90.9088 1.5912,90.0000"/>
<polygon points="5.0000,91.4500 6.0500,92.5000 5.0000,93.5500 3.9500,92.5000"/>
<polygon points="2.5000,93.9412 3.5588,95.0000 2.5000,96.0588 1.4412,95.0000"/>
<polygon points="5.0000,96.3000 6.2000,97.5000 5.0000,98.7000 3.8000,97.5000"/>
<polygon points="10.0000,47.4029 10.0971,47.5000 10.0000,47.5971 9.9029,47.5000"/>
<polygon points="7.5000,49.9029 7.5971,50.0000 7.5000,50.0971 7.4029,50.0000"/>
<polygon points="10.0000,52.3147 10.1853,52.5000 10.0000,52.6853 9.8147,52.5000"/>
<polygon points="7.5000,54.8235 7.6765,55.0000 7.5000,55.1765 7.3235,55.0000"/>
<polygon points="10.0000,57.2176 10.2824,57.5000 10.0000,57.7824 9.7176,57.5000"/>
<polygon points="7.5000,59.7353 7.7647,60.0000 7.5000,60.2647 7.2353,60.0000"/>
<polygon points="10.0000,62.1029 10.3971,62.5000 10.0000,62.8971 9.6029,62.5000"/>
<polygon points="7.5000,64.6029 7.8971,65.0000 7.5000,65.3971 7.1029,65.0000"/>
<polygon points="10.0000,66.9882 10.5118,67.5000 10.0000,68.0118 9.4882,67.5000"/>
<polygon points="7.5000,69.5059 7.9941,70.0000 7.5000,70.4941 7.0059,70.0000"/>
<polygon points="10.0000,71.8647 10.6353,72.5000 10.0000,73.1353 9.3647,72.5000"/>
<polygon points="7.5000,74.3647 8.1353,75.0000 7.5000,75.6353 6.8647,75.0000"/>
<polygon points="10.0000,76.7235 10.7765,77.5000 10.0000,78.2765 9.2235,77.5000"/>
<polygon points="7.5000,79.2235 8.2765,80.0000 7.5000,80.7765 6.7235,80.0000"/>
<polygon points="10.0000,81.5912 10.9088,82.5000 10.0000,83.4088 9.0912,82.5000"/>
<polygon points="7.5000,84.0912 8.4088,85.0000 7.5000,85.9088 6.5912,85.0000"/>
<polygon points="10.0000,86.4500 11.0500,87.5000 10.0000,88.5500 8.9500,87.5000"/>
<polygon points="7.5000,88.9412 8.5588,90.0000 7.5000,91.0588 6.4412,90.0000"/>
<polygon points="10.0000,91.3000 11.2000,92.5000 10.0000,93.7000 8.8000,92.5000"/>
<polygon points="7.5000,93.8088 8.6912,95.0000 7.5000,96.1912 6.3088,95.0000"/>
<polygon points="10.0000,96.1588 11.3412,97.5000 10.0000,98.8412 8.6588,97.5000"/>
<polygon points="15.0000,42.3941 15.1059,42.5000 15.0000,42.6059 14.8941,42.5000"/>
<polygon points="12.5000,44.9029 12.5971,45.0000 12.5000,45.0971 12.4029,45.0000"/>
<polygon points="15.0000,47.3235 15.1765,47.5000 15.0000,47.6765 14.8235,47.5000"/>
<polygon points="12.5000,49.8147 12.6853,50.0000 12.5000,50.1853 12.3147,50.0000"/>
<polygon points="15.0000,52.2176 15.2824,52.5000 15.0000,52.7824 14.7176,52.5000"/>
<polygon points="12.5000,54.7176 12.7824,55.0000 12.5000,55.2824 12.2176,55.0000"/>
<polygon points="15.0000,57.1029 15.3971,57.5000 15.0000,57.8971 14.6029,57.5000"/>
<polygon points="12.5000,59.6118 12.8882,60.0000 12.5000,60.3882 12.1118,60.0000"/>
<polygon points="15.0000,61.9882 15.5118,62.5000 15.0000,63.0118 14.4882,62.5000"/>
<polygon points="12.5000,64.5059 12.9941,65.0000 12.5000,65.4941 12.0059,65.0000"/>
<polygon points="15.0000,66.8647 15.6353,67.5000 15.0000,68.1353 14.3647,67.5000"/>
<polygon points="12.5000,69.3647 13.1353,70.0000 12.5000,70.6353 11.8647,70.0000"/>
<polygon points="15.0000,71.7235 15.7765,72.5000 15.0000,73.2765 14.2235,72.5000"/>
<polygon points="12.5000,74.2235 13.2765,75.0000 12.5000,75.7765 11.7235,75.0000"/>
<polygon points="15.0000,76.5912 15.9088,77.5000 15.0000,78.4088 14.0912,77.5000"/>
<polygon points="12.5000,79.0912 13.4088,80.0000 12.5000,80.9088 11.5912,80.0000"/>
<polygon points="15.0000,81.4500 16.0500,82.5000 15.0000,83.5500 13.9500,82.5000"/>
<polygon points="12.5000,83.9412 13.5588,85.0000 12.5000,86.0588 11.4412,85.0000"/>
<polygon points="15.0000,86.3088 16.1912,87.5000 15.0000,88.6912 13.8088,87.5000"/>
<polygon points="12.5000,88.8088 13.6912,90.0000 12.5000,91.1912 11.3088,90.0000"/>
<polygon points="15.0000,91.1676 16.3324,92.5000 15.0000,93.8324 13.6676,92.5000"/>
<polygon points="12.5000,93.6676 13.8324,95.0000 12.5000,96.3324 11.1676,95.0000"/>
<polygon points="15.0000,96.0176 16.4824,97.5000 15.0000,98.9824 13.5176,97.5000"/>
<polygon points="20.0000,37.4029 20.0971,37.5000 20.0000,37.5971 19.9029,37.5000"/>
<polygon points="17.5000,39.9029 17.5971,40.0000 17.5000,40.0971 17.4029,40.0000"/>
<polygon points="20.0000,42.3059 20.1941,42.5000 20.0000,42.6941 19.8059,42.5000"/>
<polygon points="17.5000,44.8235 17.6765,45.0000 17.5000,45.1765 17.3235,45.0000"/>
<polygon points="20.0000,47.2176 20.2824,47.5000 20.0000,47.7824 19.7176,47.5000"/>
<polygon points="17.5000,49.7176 17.7824,50.0000 17.5000,50.2824 17.2176,50.0000"/>
<polygon points="20.0000,52.1029 20.3971,52.5000 20.0000,52.8971 19.6029,52.5000"/>
<polygon points="17.5000,54.5941 17.9059,55.0000 17.5000,55.4059 17.0941,55.0000"/>
<polygon points="20.0000,56.9882 20.5118,57.5000 20.0000,58.0118 19.4882,57.5000"/>
<polygon points="17.5000,59.4794 18.0206,60.0000 17.5000,60.5206 16.9794,60.0000"/>
<polygon points="20.0000,61.8735 20.6265,62.5000 20.0000,63.1265 19.3735,62.5000"/>
<polygon points="17.5000,64.3647 18.1353,65.0000 17.5000,65.6353 16.8647,65.0000"/>
<polygon points="20.0000,66.7324 20.7676,67.5000 20.0000,68.2676 19.2324,67.5000"/>
<polygon points="17.5000,69.2324 18.2676,70.0000 17.5000,70.7676 16.7324,70.0000"/>
<polygon points="20.0000,71.5912 20.9088,72.5000 20.0000,73.4088 19.0912,72.5000"/>
<polygon points="17.5000,74.0912 18.4088,75.0000 17.5000,75.9088 16.5912,75.0000"/>
<polygon points="20.0000,76.4412 21.0588,77.5000 20.0000,78.5588 18.9412,77.5000"/>
<polygon points="17.5000,78.9412 18.5588,80.0000 17.5000,81.0588 16.4412,80.0000"/>
<polygon points="20.0000,81.3176 21.1824,82.5000 20.0000,83.6824 18.8176,82.5000"/>
<polygon points="17.5000,83.8000 18.7000,85.0000 17.5000,86.2000 16.3000,85.0000"/>
<polygon points="20.0000,86.1588 21.3412,87.5000 20.0000,88.8412 18.6588,87.5000"/>
<polygon points="17.5000,88.6588 18.8412,90.0000 17.5000,91.3412 16.1588,90.0000"/>
<polygon points="20.0000,91.0265 21.4735,92.5000 20.0000,93.9735 18.5265,92.5000"/>
<polygon points="17.5000,93.5265 18.9735,95.0000 17.5000,96.4735 16.0265,95.0000"/>
<polygon points="20.0000,95.8853 21.6147,97.5000 20.0000,99.1147 18.3853,97.5000"/>
<polygon points="25.0000,32.4029 25.0971,32.5000 25.0000,32.5971 24.9029,32.5000"/>
<polygon points="22.5000,34.8941 22.6059,35.0000 22.5000,35.1059 22.3941,35.0000"/>
<polygon points="25.0000,37.3235 25.1765,37.5000 25.0000,37.6765 24.8235,37.5000"/>
<polygon points="22.5000,39.8147 22.6853,40.0000 22.5000,40.1853 22.3147,40.0000"/>
<polygon points="25.0000,42.2176 25.2824,42.5000 25.0000,42.7824 24.7176,42.5000"/>
<polygon points="22.5000,44.7176 22.7824,45.0000 22.5000,45.2824 22.2176,45.0000"/>
<polygon points="25.0000,47.1118 25.3882,47.5000 25.0000,47.8882 24.6118,47.5000"/>
<polygon points="22.5000,49.6029 22.8971,50.0000 22.5000,50.3971 22.1029,50.0000"/>
<polygon points="25.0000,51.9882 25.5118,52.5000 25.0000,53.0118 24.4882,52.5000"/>
<polygon points="22.5000,54.4794 23.0206,55.0000 22.5000,55.5206 21.9794,55.0000"/>
<polygon points="25.0000,56.8559 25.6441,57.5000 25.0000,58.1441 24.3559,57.5000"/>
<polygon points="22.5000,59.3735 23.1265,60.0000 22.5000,60.6265 21.8735,60.0000"/>
<polygon points="25.0000,61.7235 25.7765,62.5000 25.0000,63.2765 24.2235,62.5000"/>
<polygon points="22.5000,64.2324 23.2676,65.0000 22.5000,65.7676 21.7324,65.0000"/>
<polygon points="25.0000,66.5912 25.9088,67.5000 25.0000,68.4088 24.0912,67.5000"/>
<polygon points="22.5000,69.1000 23.4000,70.0000 22.5000,70.9000 21.6000,70.0000"/>
<polygon points="25.0000,71.4412 26.0588,72.5000 25.0000,73.5588 23.9412,72.5000"/>
<polygon points="22.5000,73.9500 23.5500,75.0000 22.5000,76.0500 21.4500,75.0000"/>
<polygon points="25.0000,76.3000 26.2000,77.5000 25.0000,78.7000 23.8000,77.5000"/>
<polygon points="22.5000,78.8176 23.6824,80.0000 22.5000,81.1824 21.3176,80.0000"/>
<polygon points="25.0000,81.1765 26.3235,82.5000 25.0000,83.8235 23.6765,82.5000"/>
<polygon points="22.5000,83.6588 23.8412,85.0000 22.5000,86.3412 21.1588,85.0000"/>
<polygon points="25.0000,86.0353 26.4647,87.5000 25.0000,88.9647 23.5353,87.5000"/>
<polygon points="22.5000,88.5265 23.9735,90.0000 22.5000,91.4735 21.0265,90.0000"/>
<polygon points="25.0000,90.9029 26.5971,92.5000 25.0000,94.0971 23.4029,92.5000"/>
<polygon points="22.5000,93.3853 24.1147,95.0000 22.5000,96.6147 20.8853,95.0000"/>
<polygon points="25.0000,95.7706 26.7294,97.5000 25.0000,99.2294 23.2706,97.5000"/>
<polygon points="30.0000,27.4029 30.0971,27.5000 30.0000,27.5971 29.9029,27.5000"/>
<polygon points="27.5000,29.9029 27.5971,30.0000 27.5000,30.0971 27.4029,30.0000"/>
<polygon points="30.0000,32.3147 30.1853,32.5000 30.0000,32.6853 29.8147,32.5000"/>
<polygon points="27.5000,34.8235 27.6765,35.0000 27.5000,35.1765 27.3235,35.0000"/>
<polygon points="30.0000,37.2176 30.2824,37.5000 30.0000,37.7824 29.7176,37.5000"/>
<polygon points="27.5000,39.7176 27.7824,40.0000 27.5000,40.2824 27.2176,40.0000"/>
<polygon points="30.0000,42.1029 30.3971,42.5000 30.0000,42.8971 29.6029,42.5000"/>
<polygon points="27.5000,44.6118 27.8882,45.0000 27.5000,45.3882 27.1118,45.0000"/>
<polygon points="30.0000,46.9882 30.5118,47.5000 30.0000,48.0118 29.4882,47.5000"/>
<polygon points="27.5000,49.4882 28.0118,50.0000 27.5000,50.5118 26.9882,50.0000"/>
<polygon points="30.0000,51.8647 30.6353,52.5000 30.0000,53.1353 29.3647,52.5000"/>
<polygon points="27.5000,54.3559 28.1441,55.0000 27.5000,55.6441 26.8559,55.0000"/>
<polygon points="30.0000,56.7235 30.7765,57.5000 30.0000,58.2765 29.2235,57.5000"/>
<polygon points="27.5000,59.2235 28.2765,60.0000 27.5000,60.7765 26.7235,60.0000"/>
<polygon points="30.0000,61.6000 30.9000,62.5000 30.0000,63.4000 29.1000,62.5000"/>
<polygon points="27.5000,64.0912 28.4088,65.0000 27.5000,65.9088 26.5912,65.0000"/>
<polygon points="30.0000,66.4500 31.0500,67.5000 30.0000,68.5500 28.9500,67.5000"/>
<polygon points="27.5000,68.9412 28.5588,70.0000 27.5000,71.0588 26.4412,70.0000"/>
<polygon points="30.0000,71.3088 31.1912,72.5000 30.0000,73.6912 28.8088,72.5000"/>
<polygon points="27.5000,73.8000 28.7000,75.0000 27.5000,76.2000 26.3000,75.0000"/>
<polygon points="30.0000,76.1588 31.3412,77.5000 30.0000,78.8412 28.6588,77.5000"/>
<polygon points="27.5000,78.6765 28.8235,80.0000 27.5000,81.3235 26.1765,80.0000"/>
<polygon points="30.0000,81.0265 31.4735,82.5000 30.0000,83.9735 28.5265,82.5000"/>
<polygon points="27.5000,83.5353 28.9647,85.0000 27.5000,86.4647 26.0353,85.0000"/>
<polygon points="30.0000,85.9029 31.5971,87.5000 30.0000,89.0971 28.4029,87.5000"/>
<polygon points="27.5000,88.4029 29.0971,90.0000 27.5000,91.5971 25.9029,90.0000"/>
<polygon points="30.0000,90.7618 31.7382,92.5000 30.0000,94.2382 28.2618,92.5000"/>
<polygon points="27.5000,93.2618 29.2382,95.0000 27.5000,96.7382 25.7618,95.0000"/>
<polygon points="30.0000,95.6471 31.8529,97.5000 30.0000,99.3529 28.1471,97.5000"/>
<polygon points="35.0000,22.3941 35.1059,22.5000 35.0000,22.6059 34.8941,22.5000"/>
<polygon points="32.5000,24.9029 32.5971,25.0000 32.5000,25.0971 32.4029,25.0000"/>
<polygon points="35.0000,27.3235 35.1765,27.5000 35.0000,27.6765 34.8235,27.5000"/>
<polygon points="32.5000,29.8147 32.6853,30.0000 32.5000,30.1853 32.3147,30.0000"/>
<polygon points="35.0000,32.2088 35.2912,32.5000 35.0000,32.7912 34.7088,32.5000"/>
<polygon points="32.5000,34.7353 32.7647,35.0000 32.5000,35.2647 32.2353,35.0000"/>
<polygon points="35.0000,37.1118 35.3882,37.5000 35.0000,37.8882 34.6118,37.5000"/>
<polygon points="32.5000,39.6029 32.8971,40.0000 32.5000,40.3971 32.1029,40.0000"/>
<polygon points="35.0000,41.9794 35.5206,42.5000 35.0000,43.0206 34.4794,42.5000"/>
<polygon points="32.5000,44.4882 33.0118,45.0000 32.5000,45.5118 31.9882,45.0000"/>
<polygon points="35.0000,46.8559 35.6441,47.5000 35.0000,48.1441 34.3559,47.5000"/>
<polygon points="32.5000,49.3647 33.1353,50.0000 32.5000,50.6353 31.8647,50.0000"/>
<polygon points="35.0000,51.7324 35.7676,52.5000 35.0000,53.2676 34.2324,52.5000"/>
<polygon points="32.5000,54.2235 33.2765,55.0000 32.5000,55.7765 31.7235,55.0000"/>
<polygon points="35.0000,56.5912 35.9088,57.5000 35.0000,58.4088 34.0912,57.5000"/>
<polygon points="32.5000,59.0912 33.4088,60.0000 32.5000,60.9088 31.5912,60.0000"/>
<polygon points="35.0000,61.4500 36.0500,62.5000 35.0000,63.5500 33.9500,62.5000"/>
<polygon points="32.5000,63.9588 33.5412,65.0000 32.5000,66.0412 31.4588,65.0000"/>
<polygon points="35.0000,66.3088 36.1912,67.5000 35.0000,68.6912 33.8088,67.5000"/>
<polygon points="32.5000,68.8088 33.6912,70.0000 32.5000,71.1912 31.3088,70.0000"/>
<polygon points="35.0000,71.1676 36.3324,72.5000 35.0000,73.8324 33.6676,72.5000"/>
<polygon points="32.5000,73.6676 33.8324,75.0000 32.5000,76.3324 31.1676,75.0000"/>
<polygon points="35.0000,76.0265 36.4735,77.5000 35.0000,78.9735 33.5265,77.5000"/>
<polygon points="32.5000,78.5265 33.9735,80.0000 32.5000,81.4735 31.0265,80.0000"/>
<polygon points="35.0000,80.8853 36.6147,82.5000 35.0000,84.1147 33.3853,82.5000"/>
<polygon points="32.5000,83.4029 34.0971,85.0000 32.5000,86.5971 30.9029,85.0000"/>
<polygon points="35.0000,85.7529 36.7471,87.5000 35.0000,89.2471 33.2529,87.5000"/>
<polygon points="32.5000,88.2618 34.2382,90.0000 32.5000,91.7382 30.7618,90.0000"/>
<polygon points="35.0000,90.6471 36.8529,92.5000 35.0000,94.3529 33.1471,92.5000"/>
<polygon points="32.5000,93.1382 34.3618,95.0000 32.5000,96.8618 30.6382,95.0000"/>
<polygon points="35.0000,95.5324 36.9676,97.5000 35.0000,99.4676 33.0324,97.5000"/>
<polygon points="40.0000,17.4029 40.0971,17.5000 40.0000,17.5971 39.9029,17.5000"/>
<polygon points="37.5000,19.9029 37.5971,20.0000 37.5000,20.0971 37.4029,20.0000"/>
<polygon points="40.0000,22.3059 40.1941,22.5000 40.0000,22.6941 39.8059,22.5000"/>
<polygon points="37.5000,24.8235 37.6765,25.0000 37.5000,25.1765 37.3235,25.0000"/>
<polygon points="40.0000,27.2176 40.2824,27.5000 40.0000,27.7824 39.7176,27.5000"/>
<polygon points="37.5000,29.7176 37.7824,30.0000 37.5000,30.2824 37.2176,30.0000"/>
<polygon points="40.0000,32.1029 40.3971,32.5000 40.0000,32.8971 39.6029,32.5000"/>
<polygon points="37.5000,34.6118 37.8882,35.0000 37.5000,35.3882 37.1118,35.0000"/>
<polygon points="40.0000,36.9882 40.5118,37.5000 40.0000,38.0118 39.4882,37.5000"/>
<polygon points="37.5000,39.4882 38.0118,40.0000 37.5000,40.5118 36.9882,40.0000"/>
<polygon points="40.0000,41.8559 40.6441,42.5000 40.0000,43.1441 39.3559,42.5000"/>
<polygon points="37.5000,44.3559 38.1441,45.0000 37.5000,45.6441 36.8559,45.0000"/>
<polygon points="40.0000,46.7324 40.7676,47.5000 40.0000,48.2676 39.2324,47.5000"/>
<polygon points="37.5000,49.2235 38.2765,50.0000 37.5000,50.7765 36.7235,50.0000"/>
<polygon points="40.0000,51.5912 40.9088,52.5000 40.0000,53.4088 39.0912,52.5000"/>
<polygon points="37.5000,54.0912 38.4088,55.0000 37.5000,55.9088 36.5912,55.0000"/>
<polygon points="40.0000,56.4412 41.0588,57.5000 40.0000,58.5588 38.9412,57.5000"/>
<polygon points="37.5000,58.9412 38.5588,60.0000 37.5000,61.0588 36.4412,60.0000"/>
<polygon points="40.0000,61.3000 41.2000,62.5000 40.0000,63.7000 38.8000,62.5000"/>
<polygon points="37.5000,63.8088 38.6912,65.0000 37.5000,66.1912 36.3088,65.0000"/>
<polygon points="40.0000,66.1676 41.3324,67.5000 40.0000,68.8324 38.6676,67.5000"/>
<polygon points="37.5000,68.6676 38.8324,70.0000 37.5000,71.3324 36.1676,70.0000"/>
<polygon points="40.0000,71.0265 41.4735,72.5000 40.0000,73.9735 38.5265,72.5000"/>
<polygon points="37.5000,73.5265 38.9735,75.0000 37.5000,76.4735 36.0265,75.0000"/>
<polygon points="40.0000,75.9029 41.5971,77.5000 40.0000,79.0971 38.4029,77.5000"/>
<polygon points="37.5000,78.3853 39.1147,80.0000 37.5000,81.6147 35.8853,80.0000"/>
<polygon points="40.0000,80.7618 41.7382,82.5000 40.0000,84.2382 38.2618,82.5000"/>
<polygon points="37.5000,83.2706 39.2294,85.0000 37.5000,86.7294 35.7706,85.0000"/>
<polygon points="40.0000,85.6471 41.8529,87.5000 40.0000,89.3529 38.1471,87.5000"/>
<polygon points="37.5000,88.1382 39.3618,90.0000 37.5000,91.8618 35.6382,90.0000"/>
<polygon points="40.0000,90.5235 41.9765,92.5000 40.0000,94.4765 38.0235,92.5000"/>
<polygon points="37.5000,93.0500 39.4500,95.0000 37.5000,96.9500 35.5500,95.0000"/>
<polygon points="40.0000,95.4353 42.0647,97.5000 40.0000,99.5647 37.9353,97.5000"/>
<polygon points="45.0000,12.4029 45.0971,12.5000 45.0000,12.5971 44.9029,12.5000"/>
<polygon points="42.5000,14.8941 42.6059,15.0000 42.5000,15.1059 42.3941,15.0000"/>
<polygon points="45.0000,17.3235 45.1765,17.5000 45.0000,17.6765 44.8235,17.5000"/>
<polygon points="42.5000,19.8147 42.6853,20.0000 42.5000,20.1853 42.3147,20.0000"/>
<polygon points="45.0000,22.2176 45.2824,22.5000 45.0000,22.7824 44.7176,22.5000"/>
<polygon points="42.5000,24.7176 42.7824,25.0000 42.5000,25.2824 42.2176,25.0000"/>
<polygon points="45.0000,27.1118 45.3882,27.5000 45.0000,27.8882 44.6118,27.5000"/>
<polygon points="42.5000,29.6029 42.8971,30.0000 42.5000,30.3971 42.1029,30.0000"/>
<polygon points="45.0000,31.9882 45.5118,32.5000 45.0000,33.0118 44.4882,32.5000"/>
<polygon points="42.5000,34.4794 43.0206,35.0000 42.5000,35.5206 41.9794,35.0000"/>
<polygon points="45.0000,36.8559 45.6441,37.5000 45.0000,38.1441 44.3559,37.5000"/>
<polygon points="42.5000,39.3647 43.1353,40.0000 42.5000,40.6353 41.8647,40.0000"/>
<polygon points="45.0000,41.7412 45.7588,42.5000 45.0000,43.2588 44.2412,42.5000"/>
<polygon points="42.5000,44.2324 43.2676,45.0000 42.5000,45.7676 41.7324,45.0000"/>
<polygon points="45.0000,46.5912 45.9088,47.5000 45.0000,48.4088 44.0912,47.5000"/>
<polygon points="42.5000,49.0912 43.4088,50.0000 42.5000,50.9088 41.5912,50.0000"/>
<polygon points="45.0000,51.4500 46.0500,52.5000 45.0000,53.5500 43.9500,52.5000"/>
<polygon points="42.5000,53.9412 43.5588,55.0000 42.5000,56.0588 41.4412,55.0000"/>
<polygon points="45.0000,56.3000 46.2000,57.5000 45.0000,58.7000 43.8000,57.5000"/>
<polygon points="42.5000,58.8088 43.6912,60.0000 42.5000,61.1912 41.3088,60.0000"/>
<polygon points="45.0000,61.1765 46.3235,62.5000 45.0000,63.8235 43.6765,62.5000"/>
<polygon points="42.5000,63.6676 43.8324,65.0000 42.5000,66.3324 41.1676,65.0000"/>
<polygon points="45.0000,66.0265 46.4735,67.5000 45.0000,68.9735 43.5265,67.5000"/>
<polygon points="42.5000,68.5265 43.9735,70.0000 42.5000,71.4735 41.0265,70.0000"/>
<polygon points="45.0000,70.9029 46.5971,72.5000 45.0000,74.0971 43.4029,72.5000"/>
<polygon points="42.5000,73.3853 44.1147,75.0000 42.5000,76.6147 40.8853,75.0000"/>
<polygon points="45.0000,75.7706 46.7294,77.5000 45.0000,79.2294 43.2706,77.5000"/>
<polygon points="42.5000,78.2706 44.2294,80.0000 42.5000,81.7294 40.7706,80.0000"/>
<polygon points="45.0000,80.6471 46.8529,82.5000 45.0000,84.3529 43.1471,82.5000"/>
<polygon points="42.5000,83.1382 44.3618,85.0000 42.5000,86.8618 40.6382,85.0000"/>
<polygon points="45.0000,85.5324 46.9676,87.5000 45.0000,89.4676 43.0324,87.5000"/>
<polygon points="42.5000,88.0324 44.4676,90.0000 42.5000,91.9676 40.5324,90.0000"/>
<polygon points="45.0000,90.4441 47.0559,92.5000 45.0000,94.5559 42.9441,92.5000"/>
<polygon points="42.5000,92.9265 44.5735,95.0000 42.5000,97.0735 40.4265,95.0000"/>
<polygon points="45.0000,95.3471 47.1529,97.5000 45.0000,99.6529 42.8471,97.5000"/>
<polygon points="50.0000,7.4029 50.0971,7.5000 50.0000,7.5971 49.9029,7.5000"/>
<polygon points="47.5000,9.9029 47.5971,10.0000 47.5000,10.0971 47.4029,10.0000"/>
<polygon points="50.0000,12.3147 50.1853,12.5000 50.0000,12.6853 49.8147,12.5000"/>
<polygon points="47.5000,14.8235 47.6765,15.0000 47.5000,15.1765 47.3235,15.0000"/>
<polygon points="50.0000,17.2353 50.2647,17.5000 50.0000,17.7647 49.7353,17.5000"/>
<polygon points="47.5000,19.7088 47.7912,20.0000 47.5000,20.2912 47.2088,20.0000"/>
<polygon points="50.0000,22.1029 50.3971,22.5000 50.0000,22.8971 49.6029,22.5000"/>
<polygon points="47.5000,24.6118 47.8882,25.0000 47.5000,25.3882 47.1118,25.0000"/>
<polygon points="50.0000,26.9882 50.5118,27.5000 50.0000,28.0118 49.4882,27.5000"/>
<polygon points="47.5000,29.4882 48.0118,30.0000 47.5000,30.5118 46.9882,30.0000"/>
<polygon points="50.0000,31.8647 50.6353,32.5000 50.0000,33.1353 49.3647,32.5000"/>
<polygon points="47.5000,34.3559 48.1441,35.0000 47.5000,35.6441 46.8559,35.0000"/>
<polygon points="50.0000,36.7235 50.7765,37.5000 50.0000,38.2765 49.2235,37.5000"/>
<polygon points="47.5000,39.2324 48.2676,40.0000 47.5000,40.7676 46.7324,40.0000"/>
<polygon points="50.0000,41.5912 50.9088,42.5000 50.0000,43.4088 49.0912,42.5000"/>
<polygon points="47.5000,44.0912 48.4088,45.0000 47.5000,45.9088 46.5912,45.0000"/>
<polygon points="50.0000,46.4412 51.0588,47.5000 50.0000,48.5588 48.9412,47.5000"/>
<polygon points="47.5000,48.9500 48.5500,50.0000 47.5000,51.0500 46.4500,50.0000"/>
<polygon points="50.0000,51.3088 51.1912,52.5000 50.0000,53.6912 48.8088,52.5000"/>
<polygon points="47.5000,53.8088 48.6912,55.0000 47.5000,56.1912 46.3088,55.0000"/>
<polygon points="50.0000,56.1676 51.3324,57.5000 50.0000,58.8324 48.6676,57.5000"/>
<polygon points="47.5000,58.6765 48.8235,60.0000 47.5000,61.3235 46.1765,60.0000"/>
<polygon points="50.0000,61.0265 51.4735,62.5000 50.0000,63.9735 48.5265,62.5000"/>
<polygon points="47.5000,63.5265 48.9735,65.0000 47.5000,66.4735 46.0265,65.0000"/>
<polygon points="50.0000,65.9029 51.5971,67.5000 50.0000,69.0971 48.4029,67.5000"/>
<polygon points="47.5000,68.4029 49.0971,70.0000 47.5000,71.5971 45.9029,70.0000"/>
<polygon points="50.0000,70.7706 51.7294,72.5000 50.0000,74.2294 48.2706,72.5000"/>
<polygon points="47.5000,73.2618 49.2382,75.0000 47.5000,76.7382 45.7618,75.0000"/>
<polygon points="50.0000,75.6471 51.8529,77.5000 50.0000,79.3529 48.1471,77.5000"/>
<polygon points="47.5000,78.1382 49.3618,80.0000 47.5000,81.8618 45.6382,80.0000"/>
<polygon points="50.0000,80.5500 51.9500,82.5000 50.0000,84.4500 48.0500,82.5000"/>
<polygon points="47.5000,83.0324 49.4676,85.0000 47.5000,86.9676 45.5324,85.0000"/>
<polygon points="50.0000,85.4353 52.0647,87.5000 50.0000,89.5647 47.9353,87.5000"/>
<polygon points="47.5000,87.9353 49.5647,90.0000 47.5000,92.0647 45.4353,90.0000"/>
<polygon points="50.0000,90.3471 52.1529,92.5000 50.0000,94.6529 47.8471,92.5000"/>
<polygon points="47.5000,92.8382 49.6618,95.0000 47.5000,97.1618 45.3382,95.0000"/>
<polygon points="50.0000,95.2765 52.2235,97.5000 50.0000,99.7235 47.7765,97.5000"/>
<polygon points="55.0000,2.4029 55.0971,2.5000 55.0000,2.5971 54.9029,2.5000"/>
<polygon points="52.5000,4.9029 52.5971,5.0000 52.5000,5.0971 52.4029,5.0000"/>
<polygon points="55.0000,7.3235 55.1765,7.5000 55.0000,7.6765 54.8235,7.5000"/>
<polygon points="52.5000,9.8147 52.6853,10.0000 52.5000,10.1853 52.3147,10.0000"/>
<polygon points="55.0000,12.2176 55.2824,12.5000 55.0000,12.7824 54.7176,12.5000"/>
<polygon points="52.5000,14.7176 52.7824,15.0000 52.5000,15.2824 52.2176,15.0000"/>
<polygon points="55.0000,17.1118 55.3882,17.5000 55.0000,17.8882 54.6118,17.5000"/>
<polygon points="52.5000,19.6118 52.8882,20.0000 52.5000,20.3882 52.1118,20.0000"/>
<polygon points="55.0000,21.9882 55.5118,22.5000 55.0000,23.0118 54.4882,22.5000"/>
<polygon points="52.5000,24.5059 52.9941,25.0000 52.5000,25.4941 52.0059,25.0000"/>
<polygon points="55.0000,26.8559 55.6441,27.5000 55.0000,28.1441 54.3559,27.5000"/>
<polygon points="52.5000,29.3647 53.1353,30.0000 52.5000,30.6353 51.8647,30.0000"/>
<polygon points="55.0000,31.7235 55.7765,32.5000 55.0000,33.2765 54.2235,32.5000"/>
<polygon points="52.5000,34.2324 53.2676,35.0000 52.5000,35.7676 51.7324,35.0000"/>
<polygon points="55.0000,36.5912 55.9088,37.5000 55.0000,38.4088 54.0912,37.5000"/>
<polygon points="52.5000,39.0912 53.4088,40.0000 52.5000,40.9088 51.5912,40.0000"/>
<polygon points="55.0000,41.4412 56.0588,42.5000 55.0000,43.5588 53.9412,42.5000"/>
<polygon points="52.5000,43.9412 53.5588,45.0000 52.5000,46.0588 51.4412,45.0000"/>
<polygon points="55.0000,46.3000 56.2000,47.5000 55.0000,48.7000 53.8000,47.5000"/>
<polygon points="52.5000,48.8088 53.6912,50.0000 52.5000,51.1912 51.3088,50.0000"/>
<polygon points="55.0000,51.1676 56.3324,52.5000 55.0000,53.8324 53.6676,52.5000"/>
<polygon points="52.5000,53.6676 53.8324,55.0000 52.5000,56.3324 51.1676,55.0000"/>
<polygon points="55.0000,56.0176 56.4824,57.5000 55.0000,58.9824 53.5176,57.5000"/>
<polygon points="52.5000,58.5265 53.9735,60.0000 52.5000,61.4735 51.0265,60.0000"/>
<polygon points="55.0000,60.8853 56.6147,62.5000 55.0000,64.1147 53.3853,62.5000"/>
<polygon points="52.5000,63.4029 54.0971,65.0000 52.5000,66.5971 50.9029,65.0000"/>
<polygon points="55.0000,65.7529 56.7471,67.5000 55.0000,69.2471 53.2529,67.5000"/>
<polygon points="52.5000,68.2618 54.2382,70.0000 52.5000,71.7382 50.7618,70.0000"/>
<polygon points="55.0000,70.6471 56.8529,72.5000 55.0000,74.3529 53.1471,72.5000"/>
<polygon points="52.5000,73.1382 54.3618,75.0000 52.5000,76.8618 50.6382,75.0000"/>
<polygon points="55.0000,75.5324 56.9676,77.5000 55.0000,79.4676 53.0324,77.5000"/>
<polygon points="52.5000,78.0235 54.4765,80.0000 52.5000,81.9765 50.5235,80.0000"/>
<polygon points="55.0000,80.4265 57.0735,82.5000 55.0000,84.5735 52.9265,82.5000"/>
<polygon points="52.5000,82.9353 54.5647,85.0000 52.5000,87.0647 50.4353,85.0000"/>
<polygon points="55.0000,85.3471 57.1529,87.5000 55.0000,89.6529 52.8471,87.5000"/>
<polygon points="52.5000,87.8471 54.6529,90.0000 52.5000,92.1529 50.3471,90.0000"/>
<polygon points="55.0000,90.2765 57.2235,92.5000 55.0000,94.7235 52.7765,92.5000"/>
<polygon points="52.5000,92.7765 54.7235,95.0000 52.5000,97.2235 50.2765,95.0000"/>
<polygon points="55.0000,95.2500 57.2500,97.5000 55.0000,99.7500 52.7500,97.5000"/>
<polygon points="60.0000,2.3059 60.1941,2.5000 60.0000,2.6941 59.8059,2.5000"/>
<polygon points="57.5000,4.8235 57.6765,5.0000 57.5000,5.1765 57.3235,5.0000"/>
<polygon points="60.0000,7.2353 60.2647,7.5000 60.0000,7.7647 59.7353,7.5000"/>
<polygon points="57.5000,9.7176 57.7824,10.0000 57.5000,10.2824 57.2176,10.0000"/>
<polygon points="60.0000,12.1029 60.3971,12.5000 60.0000,12.8971 59.6029,12.5000"/>
<polygon points="57.5000,14.6118 57.8882,15.0000 57.5000,15.3882 57.1118,15.0000"/>
<polygon points="60.0000,16.9882 60.5118,17.5000 60.0000,18.0118 59.4882,17.5000"/>
<polygon points="57.5000,19.4882 58.0118,20.0000 57.5000,20.5118 56.9882,20.0000"/>
<polygon points="60.0000,21.8559 60.6441,22.5000 60.0000,23.1441 59.3559,22.5000"/>
<polygon points="57.5000,24.3559 58.1441,25.0000 57.5000,25.6441 56.8559,25.0000"/>
<polygon points="60.0000,26.7324 60.7676,27.5000 60.0000,28.2676 59.2324,27.5000"/>
<polygon points="57.5000,29.2235 58.2765,30.0000 57.5000,30.7765 56.7235,30.0000"/>
<polygon points="60.0000,31.5912 60.9088,32.5000 60.0000,33.4088 59.0912,32.5000"/>
<polygon points="57.5000,34.0912 58.4088,35.0000 57.5000,35.9088 56.5912,35.0000"/>
<polygon points="60.0000,36.4412 61.0588,37.5000 60.0000,38.5588 58.9412,37.5000"/>
<polygon points="57.5000,38.9500 58.5500,40.0000 57.5000,41.0500 56.4500,40.0000"/>
<polygon points="60.0000,41.3088 61.1912,42.5000 60.0000,43.6912 58.8088,42.5000"/>
<polygon points="57.5000,43.8176 58.6824,45.0000 57.5000,46.1824 56.3176,45.0000"/>
<polygon points="60.0000,46.1676 61.3324,47.5000 60.0000,48.8324 58.6676,47.5000"/>
<polygon points="57.5000,48.6588 58.8412,50.0000 57.5000,51.3412 56.1588,50.0000"/>
<polygon points="60.0000,51.0353 61.4647,52.5000 60.0000,53.9647 58.5353,52.5000"/>
<polygon points="57.5000,53.5265 58.9735,55.0000 57.5000,56.4735 56.0265,55.0000"/>
<polygon points="60.0000,55.9029 61.5971,57.5000 60.0000,59.0971 58.4029,57.5000"/>
<polygon points="57.5000,58.4029 59.0971,60.0000 57.5000,61.5971 55.9029,60.0000"/>
<polygon points="60.0000,60.7618 61.7382,62.5000 60.0000,64.2382 58.2618,62.5000"/>
<polygon points="57.5000,63.2706 59.2294,65.0000 57.5000,66.7294 55.7706,65.0000"/>
<polygon points="60.0000,65.6471 61.8529,67.5000 60.0000,69.3529 58.1471,67.5000"/>
<polygon points="57.5000,68.1382 59.3618,70.0000 57.5000,71.8618 55.6382,70.0000"/>
<polygon points="60.0000,70.5235 61.9765,72.5000 60.0000,74.4765 58.0235,72.5000"/>
<polygon points="57.5000,73.0500 59.4500,75.0000 57.5000,76.9500 55.5500,75.0000"/>
<polygon points="60.0000,75.4353 62.0647,77.5000 60.0000,79.5647 57.9353,77.5000"/>
<polygon points="57.5000,77.9353 59.5647,80.0000 57.5000,82.0647 55.4353,80.0000"/>
<polygon points="60.0000,80.3382 62.1618,82.5000 60.0000,84.6618 57.8382,82.5000"/>
<polygon points="57.5000,82.8471 59.6529,85.0000 57.5000,87.1529 55.3471,85.0000"/>
<polygon points="60.0000,85.2676 62.2324,87.5000 60.0000,89.7324 57.7676,87.5000"/>
<polygon points="57.5000,87.7765 59.7235,90.0000 57.5000,92.2235 55.2765,90.0000"/>
<polygon points="60.0000,90.2500 62.2500,92.5000 60.0000,94.7500 57.7500,92.5000"/>
<polygon points="57.5000,92.7500 59.7500,95.0000 57.5000,97.2500 55.2500,95.0000"/>
<polygon points="60.0000,95.2500 62.2500,97.5000 60.0000,99.7500 57.7500,97.5000"/>
<polygon points="65.0000,2.2176 65.2824,2.5000 65.0000,2.7824 64.7176,2.5000"/>
<polygon points="62.5000,4.7176 62.7824,5.0000 62.5000,5.2824 62.2176,5.0000"/>
<polygon points="65.0000,7.1118 65.3882,7.5000 65.0000,7.8882 64.6118,7.5000"/>
<polygon points="62.5000,9.6029 62.8971,10.0000 62.5000,10.3971 62.1029,10.0000"/>
<polygon points="65.0000,11.9794 65.5206,12.5000 65.0000,13.0206 64.4794,12.5000"/>
<polygon points="62.5000,14.4794 63.0206,15.0000 62.5000,15.5206 61.9794,15.0000"/>
<polygon points="65.0000,16.8647 65.6353,17.5000 65.0000,18.1353 64.3647,17.5000"/>
<polygon points="62.5000,19.3559 63.1441,20.0000 62.5000,20.6441 61.8559,20.0000"/>
<polygon points="65.0000,21.7147 65.7853,22.5000 65.0000,23.2853 64.2147,22.5000"/>
<polygon points="62.5000,24.2412 63.2588,25.0000 62.5000,25.7588 61.7412,25.0000"/>
<polygon points="65.0000,26.5912 65.9088,27.5000 65.0000,28.4088 64.0912,27.5000"/>
<polygon points="62.5000,29.0912 63.4088,30.0000 62.5000,30.9088 61.5912,30.0000"/>
<polygon points="65.0000,31.4500 66.0500,32.5000 65.0000,33.5500 63.9500,32.5000"/>
<polygon points="62.5000,33.9500 63.5500,35.0000 62.5000,36.0500 61.4500,35.0000"/>
<polygon points="65.0000,36.3000 66.2000,37.5000 65.0000,38.7000 63.8000,37.5000"/>
<polygon points="62.5000,38.8000 63.7000,40.0000 62.5000,41.2000 61.3000,40.0000"/>
<polygon points="65.0000,41.1676 66.3324,42.5000 65.0000,43.8324 63.6676,42.5000"/>
<polygon points="62.5000,43.6676 63.8324,45.0000 62.5000,46.3324 61.1676,45.0000"/>
<polygon points="65.0000,46.0265 66.4735,47.5000 65.0000,48.9735 63.5265,47.5000"/>
<polygon points="62.5000,48.5265 63.9735,50.0000 62.5000,51.4735 61.0265,50.0000"/>
<polygon points="65.0000,50.9029 66.5971,52.5000 65.0000,54.0971 63.4029,52.5000"/>
<polygon points="62.5000,53.4029 64.0971,55.0000 62.5000,56.5971 60.9029,55.0000"/>
<polygon points="65.0000,55.7618 66.7382,57.5000 65.0000,59.2382 63.2618,57.5000"/>
<polygon points="62.5000,58.2618 64.2382,60.0000 62.5000,61.7382 60.7618,60.0000"/>
<polygon points="65.0000,60.6471 66.8529,62.5000 65.0000,64.3529 63.1471,62.5000"/>
<polygon points="62.5000,63.1382 64.3618,65.0000 62.5000,66.8618 60.6382,65.0000"/>
<polygon points="65.0000,65.5500 66.9500,67.5000 65.0000,69.4500 63.0500,67.5000"/>
<polygon points="62.5000,68.0324 64.4676,70.0000 62.5000,71.9676 60.5324,70.0000"/>
<polygon points="65.0000,70.4441 67.0559,72.5000 65.0000,74.5559 62.9441,72.5000"/>
<polygon points="62.5000,72.9265 64.5735,75.0000 62.5000,77.0735 60.4265,75.0000"/>
<polygon points="65.0000,75.3471 67.1529,77.5000 65.0000,79.6529 62.8471,77.5000"/>
<polygon points="62.5000,77.8382 64.6618,80.0000 62.5000,82.1618 60.3382,80.0000"/>
<polygon points="65.0000,80.2765 67.2235,82.5000 65.0000,84.7235 62.7765,82.5000"/>
<polygon points="62.5000,82.7765 64.7235,85.0000 62.5000,87.2235 60.2765,85.0000"/>
<polygon points="65.0000,85.2500 67.2500,87.5000 65.0000,89.7500 62.7500,87.5000"/>
<polygon points="62.5000,87.7500 64.7500,90.0000 62.5000,92.2500 60.2500,90.0000"/>
<polygon points="65.0000,90.2500 67.2500,92.5000 65.0000,94.7500 62.7500,92.5000"/>
<polygon points="62.5000,92.7500 64.7500,95.0000 62.5000,97.2500 60.2500,95.0000"/>
<polygon points="65.0000,95.2500 67.2500,97.5000 65.0000,99.7500 62.7500,97.5000"/>
<polygon points="70.0000,2.1029 70.3971,2.5000 70.0000,2.8971 69.6029,2.5000"/>
<polygon points="67.5000,4.6118 67.8882,5.0000 67.5000,5.3882 67.1118,5.0000"/>
<polygon points="70.0000,7.0059 70.4941,7.5000 70.0000,7.9941 69.5059,7.5000"/>
<polygon points="67.5000,9.5059 67.9941,10.0000 67.5000,10.4941 67.0059,10.0000"/>
<polygon points="70.0000,11.8647 70.6353,12.5000 70.0000,13.1353 69.3647,12.5000"/>
<polygon points="67.5000,14.3559 68.1441,15.0000 67.5000,15.6441 66.8559,15.0000"/>
<polygon points="70.0000,16.7147 70.7853,17.5000 70.0000,18.2853 69.2147,17.5000"/>
<polygon points="67.5000,19.2147 68.2853,20.0000 67.5000,20.7853 66.7147,20.0000"/>
<polygon points="70.0000,21.6000 70.9000,22.5000 70.0000,23.4000 69.1000,22.5000"/>
<polygon points="67.5000,24.0912 68.4088,25.0000 67.5000,25.9088 66.5912,25.0000"/>
<polygon points="70.0000,26.4500 71.0500,27.5000 70.0000,28.5500 68.9500,27.5000"/>
<polygon points="67.5000,28.9412 68.5588,30.0000 67.5000,31.0588 66.4412,30.0000"/>
<polygon points="70.0000,31.3088 71.1912,32.5000 70.0000,33.6912 68.8088,32.5000"/>
<polygon points="67.5000,33.8088 68.6912,35.0000 67.5000,36.1912 66.3088,35.0000"/>
<polygon points="70.0000,36.1676 71.3324,37.5000 70.0000,38.8324 68.6676,37.5000"/>
<polygon points="67.5000,38.6676 68.8324,40.0000 67.5000,41.3324 66.1676,40.0000"/>
<polygon points="70.0000,41.0176 71.4824,42.5000 70.0000,43.9824 68.5176,42.5000"/>
<polygon points="67.5000,43.5265 68.9735,45.0000 67.5000,46.4735 66.0265,45.0000"/>
<polygon points="70.0000,45.9029 71.5971,47.5000 70.0000,49.0971 68.4029,47.5000"/>
<polygon points="67.5000,48.4029 69.0971,50.0000 67.5000,51.5971 65.9029,50.0000"/>
<polygon points="70.0000,50.7706 71.7294,52.5000 70.0000,54.2294 68.2706,52.5000"/>
<polygon points="67.5000,53.2529 69.2471,55.0000 67.5000,56.7471 65.7529,55.0000"/>
<polygon points="70.0000,55.6471 71.8529,57.5000 70.0000,59.3529 68.1471,57.5000"/>
<polygon points="67.5000,58.1382 69.3618,60.0000 67.5000,61.8618 65.6382,60.0000"/>
<polygon points="70.0000,60.5324 71.9676,62.5000 70.0000,64.4676 68.0324,62.5000"/>
<polygon points="67.5000,63.0500 69.4500,65.0000 67.5000,66.9500 65.5500,65.0000"/>
<polygon points="70.0000,65.4353 72.0647,67.5000 70.0000,69.5647 67.9353,67.5000"/>
<polygon points="67.5000,67.9353 69.5647,70.0000 67.5000,72.0647 65.4353,70.0000"/>
<polygon points="70.0000,70.3471 72.1529,72.5000 70.0000,74.6529 67.8471,72.5000"/>
<polygon points="67.5000,72.8382 69.6618,75.0000 67.5000,77.1618 65.3382,75.0000"/>
<polygon points="70.0000,75.2765 72.2235,77.5000 70.0000,79.7235 67.7765,77.5000"/>
<polygon points="67.5000,77.7765 69.7235,80.0000 67.5000,82.2235 65.2765,80.0000"/>
<polygon points="70.0000,80.2500 72.2500,82.5000 70.0000,84.7500 67.7500,82.5000"/>
<polygon points="67.5000,82.7500 69.7500,85.0000 67.5000,87.2500 65.2500,85.0000"/>
<polygon points="70.0000,85.2500 72.2500,87.5000 70.0000,89.7500 67.7500,87.5000"/>
<polygon points="67.5000,87.7500 69.7500,90.0000 67.5000,92.2500 65.2500,90.0000"/>
<polygon points="70.0000,90.2500 72.2500,92.5000 70.0000,94.7500 67.7500,92.5000"/>
<polygon points="67.5000,92.7500 69.7500,95.0000 67.5000,97.2500 65.2500,95.0000"/>
<polygon points="70.0000,95.2500 72.2500,97.5000 70.0000,99.7500 67.7500,97.5000"/>
<polygon points="75.0000,1.9794 75.5206,2.5000 75.0000,3.0206 74.4794,2.5000"/>
<polygon points="72.5000,4.4882 73.0118,5.0000 72.5000,5.5118 71.9882,5.0000"/>
<polygon points="75.0000,6.8471 75.6529,7.5000 75.0000,8.1529 74.3471,7.5000"/>
<polygon points="72.5000,9.3647 73.1353,10.0000 72.5000,10.6353 71.8647,10.0000"/>
<polygon points="75.0000,11.7235 75.7765,12.5000 75.0000,13.2765 74.2235,12.5000"/>
<polygon points="72.5000,14.2235 73.2765,15.0000 72.5000,15.7765 71.7235,15.0000"/>
<polygon points="75.0000,16.5912 75.9088,17.5000 75.0000,18.4088 74.0912,17.5000"/>
<polygon points="72.5000,19.0912 73.4088,20.0000 72.5000,20.9088 71.5912,20.0000"/>
<polygon points="75.0000,21.4412 76.0588,22.5000 75.0000,23.5588 73.9412,22.5000"/>
<polygon points="72.5000,23.9412 73.5588,25.0000 72.5000,26.0588 71.4412,25.0000"/>
<polygon points="75.0000,26.3000 76.2000,27.5000 75.0000,28.7000 73.8000,27.5000"/>
<polygon points="72.5000,28.8000 73.7000,30.0000 72.5000,31.2000 71.3000,30.0000"/>
<polygon points="75.0000,31.1676 76.3324,32.5000 75.0000,33.8324 73.6676,32.5000"/>
<polygon points="72.5000,33.6676 73.8324,35.0000 72.5000,36.3324 71.1676,35.0000"/>
<polygon points="75.0000,36.0265 76.4735,37.5000 75.0000,38.9735 73.5265,37.5000"/>
<polygon points="72.5000,38.5265 73.9735,40.0000 72.5000,41.4735 71.0265,40.0000"/>
<polygon points="75.0000,40.8853 76.6147,42.5000 75.0000,44.1147 73.3853,42.5000"/>
<polygon points="72.5000,43.4029 74.0971,45.0000 72.5000,46.5971 70.9029,45.0000"/>
<polygon points="75.0000,45.7618 76.7382,47.5000 75.0000,49.2382 73.2618,47.5000"/>
<polygon points="72.5000,48.2618 74.2382,50.0000 72.5000,51.7382 70.7618,50.0000"/>
<polygon points="75.0000,50.6471 76.8529,52.5000 75.0000,54.3529 73.1471,52.5000"/>
<polygon points="72.5000,53.1382 74.3618,55.0000 72.5000,56.8618 70.6382,55.0000"/>
<polygon points="75.0000,55.5324 76.9676,57.5000 75.0000,59.4676 73.0324,57.5000"/>
<polygon points="72.5000,58.0235 74.4765,60.0000 72.5000,61.9765 70.5235,60.0000"/>
<polygon points="75.0000,60.4265 77.0735,62.5000 75.0000,64.5735 72.9265,62.5000"/>
<polygon points="72.5000,62.9353 74.5647,65.0000 72.5000,67.0647 70.4353,65.0000"/>
<polygon points="75.0000,65.3471 77.1529,67.5000 75.0000,69.6529 72.8471,67.5000"/>
<polygon points="72.5000,67.8471 74.6529,70.0000 72.5000,72.1529 70.3471,70.0000"/>
<polygon points="75.0000,70.2765 77.2235,72.5000 75.0000,74.7235 72.7765,72.5000"/>
<polygon points="72.5000,72.7765 74.7235,75.0000 72.5000,77.2235 70.2765,75.0000"/>
<polygon points="75.0000,75.2500 77.2500,77.5000 75.0000,79.7500 72.7500,77.5000"/>
<polygon points="72.5000,77.7500 74.7500,80.0000 72.5000,82.2500 70.2500,80.0000"/>
<polygon points="75.0000,80.2500 77.2500,82.5000 75.0000,84.7500 72.7500,82.5000"/>
<polygon points="72.5000,82.7500 74.7500,85.0000 72.5000,87.2500 70.2500,85.0000"/>
<polygon points="75.0000,85.2500 77.2500,87.5000 75.0000,89.7500 72.7500,87.5000"/>
<polygon points="72.5000,87.7500 74.7500,90.0000 72.5000,92.2500 70.2500,90.0000"/>
<polygon points="75.0000,90.2500 77.2500,92.5000 75.0000,94.7500 72.7500,92.5000"/>
<polygon points="72.5000,92.7500 74.7500,95.0000 72.5000,97.2500 70.2500,95.0000"/>
<polygon points="75.0000,95.2500 77.2500,97.5000 75.0000,99.7500 72.7500,97.5000"/>
<polygon points="80.0000,1.8559 80.6441,2.5000 80.0000,3.1441 79.3559,2.5000"/>
<polygon points="77.5000,4.3647 78.1353,5.0000 77.5000,5.6353 76.8647,5.0000"/>
<polygon points="80.0000,6.7235 80.7765,7.5000 80.0000,8.2765 79.2235,7.5000"/>
<polygon points="77.5000,9.2235 78.2765,10.0000 77.5000,10.7765 76.7235,10.0000"/>
<polygon points="80.0000,11.5912 80.9088,12.5000 80.0000,13.4088 79.0912,12.5000"/>
<polygon points="77.5000,14.0912 78.4088,15.0000 77.5000,15.9088 76.5912,15.0000"/>
<polygon points="80.0000,16.4412 81.0588,17.5000 80.0000,18.5588 78.9412,17.5000"/>
<polygon points="77.5000,18.9412 78.5588,20.0000 77.5000,21.0588 76.4412,20.0000"/>
<polygon points="80.0000,21.3176 81.1824,22.5000 80.0000,23.6824 78.8176,22.5000"/>
<polygon points="77.5000,23.8088 78.6912,25.0000 77.5000,26.1912 76.3088,25.0000"/>
<polygon points="80.0000,26.1588 81.3412,27.5000 80.0000,28.8412 78.6588,27.5000"/>
<polygon points="77.5000,28.6676 78.8324,30.0000 77.5000,31.3324 76.1676,30.0000"/>
<polygon points="80.0000,31.0265 81.4735,32.5000 80.0000,33.9735 78.5265,32.5000"/>
<polygon points="77.5000,33.5265 78.9735,35.0000 77.5000,36.4735 76.0265,35.0000"/>
<polygon points="80.0000,35.9029 81.5971,37.5000 80.0000,39.0971 78.4029,37.5000"/>
<polygon points="77.5000,38.3853 79.1147,40.0000 77.5000,41.6147 75.8853,40.0000"/>
<polygon points="80.0000,40.7618 81.7382,42.5000 80.0000,44.2382 78.2618,42.5000"/>
<polygon points="77.5000,43.2618 79.2382,45.0000 77.5000,46.7382 75.7618,45.0000"/>
<polygon points="80.0000,45.6471 81.8529,47.5000 80.0000,49.3529 78.1471,47.5000"/>
<polygon points="77.5000,48.1382 79.3618,50.0000 77.5000,51.8618 75.6382,50.0000"/>
<polygon points="80.0000,50.5235 81.9765,52.5000 80.0000,54.4765 78.0235,52.5000"/>
<polygon points="77.5000,53.0324 79.4676,55.0000 77.5000,56.9676 75.5324,55.0000"/>
<polygon points="80.0000,55.4353 82.0647,57.5000 80.0000,59.5647 77.9353,57.5000"/>
<polygon points="77.5000,57.9265 79.5735,60.0000 77.5000,62.0735 75.4265,60.0000"/>
<polygon points="80.0000,60.3382 82.1618,62.5000 80.0000,64.6618 77.8382,62.5000"/>
<polygon points="77.5000,62.8471 79.6529,65.0000 77.5000,67.1529 75.3471,65.0000"/>
<polygon points="80.0000,65.2765 82.2235,67.5000 80.0000,69.7235 77.7765,67.5000"/>
<polygon points="77.5000,67.7765 79.7235,70.0000 77.5000,72.2235 75.2765,70.0000"/>
<polygon points="80.0000,70.2500 82.2500,72.5000 80.0000,74.7500 77.7500,72.5000"/>
<polygon points="77.5000,72.7500 79.7500,75.0000 77.5000,77.2500 75.2500,75.0000"/>
<polygon points="80.0000,75.2500 82.2500,77.5000 80.0000,79.7500 77.7500,77.5000"/>
<polygon points="77.5000,77.7500 79.7500,80.0000 77.5000,82.2500 75.2500,80.0000"/>
<polygon points="80.0000,80.2500 82.2500,82.5000 80.0000,84.7500 77.7500,82.5000"/>
<polygon points="77.5000,82.7500 79.7500,85.0000 77.5000,87.2500 75.2500,85.0000"/>
<polygon points="80.0000,85.2500 82.2500,87.5000 80.0000,89.7500 77.7500,87.5000"/>
<polygon points="77.5000,87.7500 79.7500,90.0000 77.5000,92.2500 75.2500,90.0000"/>
<polygon points="80.0000,90.2500 82.2500,92.5000 80.0000,94.7500 77.7500,92.5000"/>
<polygon points="77.5000,92.7500 79.7500,95.0000 77.5000,97.2500 75.2500,95.0000"/>
<polygon points="80.0000,95.2500 82.2500,97.5000 80.0000,99.7500 77.7500,97.5000"/>
<polygon points="85.0000,1.7235 85.7765,2.5000 85.0000,3.2765 84.2235,2.5000"/>
<polygon points="82.5000,4.2324 83.2676,5.0000 82.5000,5.7676 81.7324,5.0000"/>
<polygon points="85.0000,6.6000 85.9000,7.5000 85.0000,8.4000 84.1000,7.5000"/>
<polygon points="82.5000,9.0912 83.4088,10.0000 82.5000,10.9088 81.5912,10.0000"/>
<polygon points="85.0000,11.4500 86.0500,12.5000 85.0000,13.5500 83.9500,12.5000"/>
<polygon points="82.5000,13.9500 83.5500,15.0000 82.5000,16.0500 81.4500,15.0000"/>
<polygon points="85.0000,16.3088 86.1912,17.5000 85.0000,18.6912 83.8088,17.5000"/>
<polygon points="82.5000,18.8088 83.6912,20.0000 82.5000,21.1912 81.3088,20.0000"/>
<polygon points="85.0000,21.1588 86.3412,22.5000 85.0000,23.8412 83.6588,22.5000"/>
<polygon points="82.5000,23.6588 83.8412,25.0000 82.5000,26.3412 81.1588,25.0000"/>
<polygon points="85.0000,26.0176 86.4824,27.5000 85.0000,28.9824 83.5176,27.5000"/>
<polygon points="82.5000,28.5176 83.9824,30.0000 82.5000,31.4824 81.0176,30.0000"/>
<polygon points="85.0000,30.9029 86.5971,32.5000 85.0000,34.0971 83.4029,32.5000"/>
<polygon points="82.5000,33.3853 84.1147,35.0000 82.5000,36.6147 80.8853,35.0000"/>
<polygon points="85.0000,35.7706 86.7294,37.5000 85.0000,39.2294 83.2706,37.5000"/>
<polygon points="82.5000,38.2706 84.2294,40.0000 82.5000,41.7294 80.7706,40.0000"/>
<polygon points="85.0000,40.6471 86.8529,42.5000 85.0000,44.3529 83.1471,42.5000"/>
<polygon points="82.5000,43.1382 84.3618,45.0000 82.5000,46.8618 80.6382,45.0000"/>
<polygon points="85.0000,45.5500 86.9500,47.5000 85.0000,49.4500 83.0500,47.5000"/>
<polygon points="82.5000,48.0324 84.4676,50.0000 82.5000,51.9676 80.5324,50.0000"/>
<polygon points="85.0000,50.4353 87.0647,52.5000 85.0000,54.5647 82.9353,52.5000"/>
<polygon points="82.5000,52.9265 84.5735,55.0000 82.5000,57.0735 80.4265,55.0000"/>
<polygon points="85.0000,55.3471 87.1529,57.5000 85.0000,59.6529 82.8471,57.5000"/>
<polygon points="82.5000,57.8382 84.6618,60.0000 82.5000,62.1618 80.3382,60.0000"/>
<polygon points="85.0000,60.2765 87.2235,62.5000 85.0000,64.7235 82.7765,62.5000"/>
<polygon points="82.5000,62.7765 84.7235,65.0000 82.5000,67.2235 80.2765,65.0000"/>
<polygon points="85.0000,65.2500 87.2500,67.5000 85.0000,69.7500 82.7500,67.5000"/>
<polygon points="82.5000,67.7500 84.7500,70.0000 82.5000,72.2500 80.2500,70.0000"/>
<polygon points="85.0000,70.2500 87.2500,72.5000 85.0000,74.7500 82.7500,72.5000"/>
<polygon points="82.5000,72.7500 84.7500,75.0000 82.5000,77.2500 80.2500,75.0000"/>
<polygon points="85.0000,75.2500 87.2500,77.5000 85.0000,79.7500 82.7500,77.5000"/>
<polygon points="82.5000,77.7500 84.7500,80.0000 82.5000,82.2500 80.2500,80.0000"/>
<polygon points="85.0000,80.2500 87.2500,82.5000 85.0000,84.7500 82.7500,82.5000"/>
<polygon points="82.5000,82.7500 84.7500,85.0000 82.5000,87.2500 80.2500,85.0000"/>
<polygon points="85.0000,85.2500 87.2500,87.5000 85.0000,89.7500 82.7500,87.5000"/>
<polygon points="82.5000,87.7500 84.7500,90.0000 82.5000,92.2500 80.2500,90.0000"/>
<polygon points="85.0000,90.2500 87.2500,92.5000 85.0000,94.7500 82.7500,92.5000"/>
<polygon points="82.5000,92.7500 84.7500,95.0000 82.5000,97.2500 80.2500,95.0000"/>
<polygon points="85.0000,95.2500 87.2500,97.5000 85.0000,99.7500 82.7500,97.5000"/>
<polygon points="90.0000,1.5912 90.9088,2.5000 90.0000,3.4088 89.0912,2.5000"/>
<polygon points="87.5000,4.1000 88.4000,5.0000 87.5000,5.9000 86.6000,5.0000"/>
<polygon points="90.0000,6.4500 91.0500,7.5000 90.0000,8.5500 88.9500,7.5000"/>
<polygon points="87.5000,8.9412 88.5588,10.0000 87.5000,11.0588 86.4412,10.0000"/>
<polygon points="90.0000,11.3088 91.1912,12.5000 90.0000,13.6912 88.8088,12.5000"/>
<polygon points="87.5000,13.8088 88.6912,15.0000 87.5000,16.1912 86.3088,15.0000"/>
<polygon points="90.0000,16.1588 91.3412,17.5000 90.0000,18.8412 88.6588,17.5000"/>
<polygon points="87.5000,18.6588 88.8412,20.0000 87.5000,21.3412 86.1588,20.0000"/>
<polygon points="90.0000,21.0353 91.4647,22.5000 90.0000,23.9647 88.5353,22.5000"/>
<polygon points="87.5000,23.5176 88.9824,25.0000 87.5000,26.4824 86.0176,25.0000"/>
<polygon points="90.0000,25.9029 91.5971,27.5000 90.0000,29.0971 88.4029,27.5000"/>
<polygon points="87.5000,28.4029 89.0971,30.0000 87.5000,31.5971 85.9029,30.0000"/>
<polygon points="90.0000,30.7618 91.7382,32.5000 90.0000,34.2382 88.2618,32.5000"/>
<polygon points="87.5000,33.2618 89.2382,35.0000 87.5000,36.7382 85.7618,35.0000"/>
<polygon points="90.0000,35.6471 91.8529,37.5000 90.0000,39.3529 88.1471,37.5000"/>
<polygon points="87.5000,38.1382 89.3618,40.0000 87.5000,41.8618 85.6382,40.0000"/>
<polygon points="90.0000,40.5500 91.9500,42.5000 90.0000,44.4500 88.0500,42.5000"/>
<polygon points="87.5000,43.0500 89.4500,45.0000 87.5000,46.9500 85.5500,45.0000"/>
<polygon points="90.0000,45.4353 92.0647,47.5000 90.0000,49.5647 87.9353,47.5000"/>
<polygon points="87.5000,47.9353 89.5647,50.0000 87.5000,52.0647 85.4353,50.0000"/>
<polygon points="90.0000,50.3471 92.1529,52.5000 90.0000,54.6529 87.8471,52.5000"/>
<polygon points="87.5000,52.8471 89.6529,55.0000 87.5000,57.1529 85.3471,55.0000"/>
<polygon points="90.0000,55.2765 92.2235,57.5000 90.0000,59.7235 87.7765,57.5000"/>
<polygon points="87.5000,57.7765 89.7235,60.0000 87.5000,62.2235 85.2765,60.0000"/>
<polygon points="90.0000,60.2500 92.2500,62.5000 90.0000,64.7500 87.7500,62.5000"/>
<polygon points="87.5000,62.7500 89.7500,65.0000 87.5000,67.2500 85.2500,65.0000"/>
<polygon points="90.0000,65.2500 92.2500,67.5000 90.0000,69.7500 87.7500,67.5000"/>
<polygon points="87.5000,67.7500 89.7500,70.0000 87.5000,72.2500 85.2500,70.0000"/>
<polygon points="90.0000,70.2500 92.2500,72.5000 90.0000,74.7500 87.7500,72.5000"/>
<polygon points="87.5000,72.7500 89.7500,75.0000 87.5000,77.2500 85.2500,75.0000"/>
<polygon points="90.0000,75.2500 92.2500,77.5000 90.0000,79.7500 87.7500,77.5000"/>
<polygon points="87.5000,77.7500 89.7500,80.0000 87.5000,82.2500 85.2500,80.0000"/>
<polygon points="90.0000,80.2500 92.2500,82.5000 90.0000,84.7500 87.7500,82.5000"/>
<polygon points="87.5000,82.7500 89.7500,85.0000 87.5000,87.2500 85.2500,85.0000"/>
<polygon points="90.0000,85.2500 92.2500,87.5000 90.0000,89.7500 87.7500,87.5000"/>
<polygon points="87.5000,87.7500 89.7500,90.0000 87.5000,92.2500 85.2500,90.0000"/>
<polygon points="90.0000,90.2500 92.2500,92.5000 90.0000,94.7500 87.7500,92.5000"/>
<polygon points="87.5000,92.7500 89.7500,95.0000 87.5000,97.2500 85.2500,95.0000"/>
<polygon points="90.0000,95.2500 92.2500,97.5000 90.0000,99.7500 87.7500,97.5000"/>
<polygon points="95.0000,1.4500 96.0500,2.5000 95.0000,3.5500 93.9500,2.5000"/>
<polygon points="92.5000,3.9500 93.5500,5.0000 92.5000,6.0500 91.4500,5.0000"/>
<polygon points="95.0000,6.3088 96.1912,7.5000 95.0000,8.6912 93.8088,7.5000"/>
<polygon points="92.5000,8.8000 93.7000,10.0000 92.5000,11.2000 91.3000,10.0000"/>
<polygon points="95.0000,11.1676 96.3324,12.5000 95.0000,13.8324 93.6676,12.5000"/>
<polygon points="92.5000,13.6676 93.8324,15.0000 92.5000,16.3324 91.1676,15.0000"/>
<polygon points="95.0000,16.0265 96.4735,17.5000 95.0000,18.9735 93.5265,17.5000"/>
<polygon points="92.5000,18.5265 93.9735,20.0000 92.5000,21.4735 91.0265,20.0000"/>
<polygon points="95.0000,20.8853 96.6147,22.5000 95.0000,24.1147 93.3853,22.5000"/>
<polygon points="92.5000,23.4029 94.0971,25.0000 92.5000,26.5971 90.9029,25.0000"/>
<polygon points="95.0000,25.7618 96.7382,27.5000 95.0000,29.2382 93.2618,27.5000"/>
<polygon points="92.5000,28.2618 94.2382,30.0000 92.5000,31.7382 90.7618,30.0000"/>
<polygon points="95.0000,30.6471 96.8529,32.5000 95.0000,34.3529 93.1471,32.5000"/>
<polygon points="92.5000,33.1382 94.3618,35.0000 92.5000,36.8618 90.6382,35.0000"/>
<polygon points="95.0000,35.5324 96.9676,37.5000 95.0000,39.4676 93.0324,37.5000"/>
<polygon points="92.5000,38.0235 94.4765,40.0000 92.5000,41.9765 90.5235,40.0000"/>
<polygon points="95.0000,40.4265 97.0735,42.5000 95.0000,44.5735 92.9265,42.5000"/>
<polygon points="92.5000,42.9353 94.5647,45.0000 92.5000,47.0647 90.4353,45.0000"/>
<polygon points="95.0000,45.3471 97.1529,47.5000 95.0000,49.6529 92.8471,47.5000"/>
<polygon points="92.5000,47.8471 94.6529,50.0000 92.5000,52.1529 90.3471,50.0000"/>
<polygon points="95.0000,50.2765 97.2235,52.5000 95.0000,54.7235 92.7765,52.5000"/>
<polygon points="92.5000,52.7765 94.7235,55.0000 92.5000,57.2235 90.2765,55.0000"/>
<polygon points="95.0000,55.2500 97.2500,57.5000 95.0000,59.7500 92.7500,57.5000"/>
<polygon points="92.5000,57.7500 94.7500,60.0000 92.5000,62.2500 90.2500,60.0000"/>
<polygon points="95.0000,60.2500 97.2500,62.5000 95.0000,64.7500 92.7500,62.5000"/>
<polygon points="92.5000,62.7500 94.7500,65.0000 92.5000,67.2500 90.2500,65.0000"/>
<polygon points="95.0000,65.2500 97.2500,67.5000 95.0000,69.7500 92.7500,67.5000"/>
<polygon points="92.5000,67.7500 94.7500,70.0000 92.5000,72.2500 90.2500,70.0000"/>
<polygon points="95.0000,70.2500 97.2500,72.5000 95.0000,74.7500 92.7500,72.5000"/>
<polygon points="92.5000,72.7500 94.7500,75.0000 92.5000,77.2500 90.2500,75.0000"/>
<polygon points="95.0000,75.2500 97.2500,77.5000 95.0000,79.7500 92.7500,77.5000"/>
<polygon points="92.5000,77.7500 94.7500,80.0000 92.5000,82.2500 90.2500,80.0000"/>
<polygon points="95.0000,80.2500 97.2500,82.5000 95.0000,84.7500 92.7500,82.5000"/>
<polygon points="92.5000,82.7500 94.7500,85.0000 92.5000,87.2500 90.2500,85.0000"/>
<polygon points="95.0000,85.2500 97.2500,87.5000 95.0000,89.7500 92.7500,87.5000"/>
<polygon points="92.5000,87.7500 94.7500,90.0000 92.5000,92.2500 90.2500,90.0000"/>
<polygon points="95.0000,90.2500 97.2500,92.5000 95.0000,94.7500 92.7500,92.5000"/>
<polygon points="92.5000,92.7500 94.7500,95.0000 92.5000,97.2500 90.2500,95.0000"/>
<polygon points="95.0000,95.2500 97.2500,97.5000 95.0000,99.7500 92.7500,97.5000"/>
<polygon points="97.5000,3.8088 98.6912,5.0000 97.5000,6.1912 96.3088,5.0000"/>
<polygon points="97.5000,8.6676 98.8324,10.0000 97.5000,11.3324 96.1676,10.0000"/>
<polygon points="97.5000,13.5265 98.9735,15.0000 97.5000,16.4735 96.0265,15.0000"/>
<polygon points="97.5000,18.4029 99.0971,20.0000 97.5000,21.5971 95.9029,20.0000"/>
<polygon points="97.5000,23.2618 99.2382,25.0000 97.5000,26.7382 95.7618,25.0000"/>
<polygon points="97.5000,28.1382 99.3618,30.0000 97.5000,31.8618 95.6382,30.0000"/>
<polygon points="97.5000,33.0500 99.4500,35.0000 97.5000,36.9500 95.5500,35.0000"/>
<polygon points="97.5000,37.9353 99.5647,40.0000 97.5000,42.0647 95.4353,40.0000"/>
<polygon points="97.5000,42.8471 99.6529,45.0000 97.5000,47.1529 95.3471,45.0000"/>
<polygon points="97.5000,47.7765 99.7235,50.0000 97.5000,52.2235 95.2765,50.0000"/>
<polygon points="97.5000,52.7500 99.7500,55.0000 97.5000,57.2500 95.2500,55.0000"/>
<polygon points="97.5000,57.7500 99.7500,60.0000 97.5000,62.2500 95.2500,60.0000"/>
<polygon points="97.5000,62.7500 99.7500,65.0000 97.5000,67.2500 95.2500,65.0000"/>
<polygon points="97.5000,67.7500 99.7500,70.0000 97.5000,72.2500 95.2500,70.0000"/>
<polygon points="97.5000,72.7500 99.7500,75.0000 97.5000,77.2500 95.2500,75.0000"/>
<polygon points="97.5000,77.7500 99.7500,80.0000 97.5000,82.2500 95.2500,80.0000"/>
<polygon points="97.5000,82.7500 99.7500,85.0000 97.5000,87.2500 95.2500,85.0000"/>
<polygon points="97.5000,87.7500 99.7500,90.0000 97.5000,92.2500 95.2500,90.0000"/>
<polygon points="97.5000,92.7500 99.7500,95.0000 97.5000,97.2500 95.2500,95.0000"/></g></svg>