<?xml version="1.0" encoding="UTF-8" standalone="no"?>

<svg width="100mm" height="100mm" viewBox="0 0 100 100" xmlns="http://www.w3.org/2000/svg">
<rect width="100%" height="100%" fill="black"/>
<g fill="white">
<polygon points="5.1375,56.5744 5.0000,56.6538 4.8625,56.5744 4.8625,56.4156 5.0000,56.3362 5.1375,56.4156 "/>
<polygon points="2.6681,60.9221 2.5000,61.0191 2.3319,60.9221 2.3319,60.7279 2.5000,60.6309 2.6681,60.7279 "/>
<polygon points="5.2904,65.3226 5.0000,65.4903 4.7096,65.3226 4.7096,64.9874 5.0000,64.8197 5.2904,64.9874 "/>
<polygon points="2.8209,69.6703 2.5000,69.8556 2.1791,69.6703 2.1791,69.2997 2.5000,69.1144 2.8209,69.2997 "/>
<polygon points="5.4661,74.0841 5.0000,74.3532 4.5339,74.0841 4.5339,73.5459 5.0000,73.2768 5.4661,73.5459 "/>
<polygon points="3.0196,78.4450 2.5000,78.7450 1.9804,78.4450 1.9804,77.8450 2.5000,77.5450 3.0196,77.8450 "/>
<polygon points="5.6648,82.8588 5.0000,83.2426 4.3352,82.8588 4.3352,82.0912 5.0000,81.7074 5.6648,82.0912 "/>
<polygon points="3.2107,87.2153 2.5000,87.6256 1.7893,87.2153 1.7893,86.3947 2.5000,85.9844 3.2107,86.3947 "/>
<polygon points="5.8788,91.6424 5.0000,92.1497 4.1212,91.6424 4.1212,90.6276 5.0000,90.1203 5.8788,90.6276 "/>
<polygon points="3.4170,95.9944 2.5000,96.5238 1.5830,95.9944 1.5830,94.9356 2.5000,94.4062 3.4170,94.9356 "/>
<polygon points="10.0841,47.8835 10.0000,47.9321 9.9159,47.8835 9.9159,47.7865 10.0000,47.7379 10.0841,47.7865 "/>
<polygon points="7.6146,52.2312 7.5000,52.2974 7.3854,52.2312 7.3854,52.0988 7.5000,52.0326 7.6146,52.0988 "/>
<polygon points="10.2216,56.6229 10.0000,56.7509 9.7784,56.6229 9.7784,56.3671 10.0000,56.2391 10.2216,56.3671 "/>
<polygon points="7.7445,60.9662 7.5000,61.1074 7.2555,60.9662 7.2555,60.6838 7.5000,60.5426 7.7445,60.6838 "/>
<polygon points="10.3897,65.3800 10.0000,65.6050 9.6103,65.3800 9.6103,64.9300 10.0000,64.7050 10.3897,64.9300 "/>
<polygon points="7.9279,69.7321 7.5000,69.9791 7.0721,69.7321 7.0721,69.2379 7.5000,68.9909 7.9279,69.2379 "/>
<polygon points="10.5731,74.1459 10.0000,74.4768 9.4269,74.1459 9.4269,73.4841 10.0000,73.1532 10.5731,73.4841 "/>
<polygon points="8.1266,78.5068 7.5000,78.8685 6.8734,78.5068 6.8734,77.7832 7.5000,77.4215 8.1266,77.7832 "/>
<polygon points="10.7794,82.9250 10.0000,83.3750 9.2206,82.9250 9.2206,82.0250 10.0000,81.5750 10.7794,82.0250 "/>
<polygon points="8.3176,87.2771 7.5000,87.7491 6.6824,87.2771 6.6824,86.3329 7.5000,85.8609 8.3176,86.3329 "/>
<polygon points="10.9934,91.7085 10.0000,92.2821 9.0066,91.7085 9.0066,90.5615 10.0000,89.9879 10.9934,90.5615 "/>
<polygon points="8.5316,96.0606 7.5000,96.6562 6.4684,96.0606 6.4684,94.8694 7.5000,94.2738 8.5316,94.8694 "/>
<polygon points="15.1528,47.9232 15.0000,48.0115 14.8472,47.9232 14.8472,47.7468 15.0000,47.6585 15.1528,47.7468 "/>
<polygon points="12.6910,52.2753 12.5000,52.3856 12.3090,52.2753 12.3090,52.0547 12.5000,51.9444 12.6910,52.0547 "/>
<polygon points="15.3057,56.6715 15.0000,56.8479 14.6943,56.6715 14.6943,56.3185 15.0000,56.1421 15.3057,56.3185 "/>
<polygon points="12.8515,61.0279 12.5000,61.2309 12.1485,61.0279 12.1485,60.6221 12.5000,60.4191 12.8515,60.6221 "/>
<polygon points="15.4967,65.4418 15.0000,65.7285 14.5033,65.4418 14.5033,64.8682 15.0000,64.5815 15.4967,64.8682 "/>
<polygon points="13.0273,69.7894 12.5000,70.0938 11.9727,69.7894 11.9727,69.1806 12.5000,68.8762 13.0273,69.1806 "/>
<polygon points="15.6877,74.2121 15.0000,74.6091 14.3123,74.2121 14.3123,73.4179 15.0000,73.0209 15.6877,73.4179 "/>
<polygon points="13.2412,78.5729 12.5000,79.0009 11.7588,78.5729 11.7588,77.7171 12.5000,77.2891 13.2412,77.7171 "/>
<polygon points="15.8940,82.9912 15.0000,83.5074 14.1060,82.9912 14.1060,81.9588 15.0000,81.4426 15.8940,81.9588 "/>
<polygon points="13.4399,87.3476 12.5000,87.8903 11.5601,87.3476 11.5601,86.2624 12.5000,85.7197 13.4399,86.2624 "/>
<polygon points="16.1233,91.7835 15.0000,92.4321 13.8767,91.7835 13.8767,90.4865 15.0000,89.8379 16.1233,90.4865 "/>
<polygon points="13.6539,96.1312 12.5000,96.7974 11.3461,96.1312 11.3461,94.7988 12.5000,94.1326 13.6539,94.7988 "/>
<polygon points="20.0917,39.2279 20.0000,39.2809 19.9083,39.2279 19.9083,39.1221 20.0000,39.0691 20.0917,39.1221 "/>
<polygon points="17.6299,43.5800 17.5000,43.6550 17.3701,43.5800 17.3701,43.4300 17.5000,43.3550 17.6299,43.4300 "/>
<polygon points="20.2445,47.9762 20.0000,48.1174 19.7555,47.9762 19.7555,47.6938 20.0000,47.5526 20.2445,47.6938 "/>
<polygon points="17.7904,52.3326 17.5000,52.5003 17.2096,52.3326 17.2096,51.9974 17.5000,51.8297 17.7904,51.9974 "/>
<polygon points="20.4126,56.7332 20.0000,56.9715 19.5874,56.7332 19.5874,56.2568 20.0000,56.0185 20.4126,56.2568 "/>
<polygon points="17.9508,61.0853 17.5000,61.3456 17.0492,61.0853 17.0492,60.5647 17.5000,60.3044 17.9508,60.5647 "/>
<polygon points="20.6113,65.5079 20.0000,65.8609 19.3887,65.5079 19.3887,64.8021 20.0000,64.4491 20.6113,64.8021 "/>
<polygon points="18.1495,69.8600 17.5000,70.2350 16.8505,69.8600 16.8505,69.1100 17.5000,68.7350 18.1495,69.1100 "/>
<polygon points="20.8176,74.2871 20.0000,74.7591 19.1824,74.2871 19.1824,73.3429 20.0000,72.8709 20.8176,73.3429 "/>
<polygon points="18.3635,78.6435 17.5000,79.1421 16.6365,78.6435 16.6365,77.6465 17.5000,77.1479 18.3635,77.6465 "/>
<polygon points="21.0163,83.0618 20.0000,83.6485 18.9837,83.0618 18.9837,81.8882 20.0000,81.3015 21.0163,81.8882 "/>
<polygon points="18.5622,87.4182 17.5000,88.0315 16.4378,87.4182 16.4378,86.1918 17.5000,85.5785 18.5622,86.1918 "/>
<polygon points="21.2379,91.8497 20.0000,92.5644 18.7621,91.8497 18.7621,90.4203 20.0000,89.7056 21.2379,90.4203 "/>
<polygon points="18.7761,96.2018 17.5000,96.9385 16.2239,96.2018 16.2239,94.7282 17.5000,93.9915 18.7761,94.7282 "/>
<polygon points="22.5841,34.8935 22.5000,34.9421 22.4159,34.8935 22.4159,34.7965 22.5000,34.7479 22.5841,34.7965 "/>
<polygon points="25.1834,39.2809 25.0000,39.3868 24.8166,39.2809 24.8166,39.0691 25.0000,38.9632 25.1834,39.0691 "/>
<polygon points="22.7140,43.6285 22.5000,43.7521 22.2860,43.6285 22.2860,43.3815 22.5000,43.2579 22.7140,43.3815 "/>
<polygon points="25.3362,48.0291 25.0000,48.2232 24.6638,48.0291 24.6638,47.6409 25.0000,47.4468 25.3362,47.6409 "/>
<polygon points="22.8897,52.3900 22.5000,52.6150 22.1103,52.3900 22.1103,51.9400 22.5000,51.7150 22.8897,51.9400 "/>
<polygon points="25.5196,56.7950 25.0000,57.0950 24.4804,56.7950 24.4804,56.1950 25.0000,55.8950 25.5196,56.1950 "/>
<polygon points="23.0578,61.1471 22.5000,61.4691 21.9422,61.1471 21.9422,60.5029 22.5000,60.1809 23.0578,60.5029 "/>
<polygon points="25.7412,65.5829 25.0000,66.0109 24.2588,65.5829 24.2588,64.7271 25.0000,64.2991 25.7412,64.7271 "/>
<polygon points="23.2641,69.9262 22.5000,70.3674 21.7359,69.9262 21.7359,69.0438 22.5000,68.6026 23.2641,69.0438 "/>
<polygon points="25.9399,74.3576 25.0000,74.9003 24.0601,74.3576 24.0601,73.2724 25.0000,72.7297 25.9399,73.2724 "/>
<polygon points="23.4781,78.7097 22.5000,79.2744 21.5219,78.7097 21.5219,77.5803 22.5000,77.0156 23.4781,77.5803 "/>
<polygon points="26.1386,83.1324 25.0000,83.7897 23.8614,83.1324 23.8614,81.8176 25.0000,81.1603 26.1386,81.8176 "/>
<polygon points="23.6921,87.4932 22.5000,88.1815 21.3079,87.4932 21.3079,86.1168 22.5000,85.4285 23.6921,86.1168 "/>
<polygon points="26.3525,91.9159 25.0000,92.6968 23.6475,91.9159 23.6475,90.3541 25.0000,89.5732 26.3525,90.3541 "/>
<polygon points="23.8984,96.2724 22.5000,97.0797 21.1016,96.2724 21.1016,94.6576 22.5000,93.8503 23.8984,94.6576 "/>
<polygon points="30.1299,30.5900 30.0000,30.6650 29.8701,30.5900 29.8701,30.4400 30.0000,30.3650 30.1299,30.4400 "/>
<polygon points="27.6452,34.9288 27.5000,35.0126 27.3548,34.9288 27.3548,34.7612 27.5000,34.6774 27.6452,34.7612 "/>
<polygon points="30.2751,39.3338 30.0000,39.4926 29.7249,39.3338 29.7249,39.0162 30.0000,38.8574 30.2751,39.0162 "/>
<polygon points="27.7980,43.6771 27.5000,43.8491 27.2020,43.6771 27.2020,43.3329 27.5000,43.1609 27.7980,43.3329 "/>
<polygon points="30.4432,48.0909 30.0000,48.3468 29.5568,48.0909 29.5568,47.5791 30.0000,47.3232 30.4432,47.5791 "/>
<polygon points="27.9890,52.4474 27.5000,52.7297 27.0110,52.4474 27.0110,51.8826 27.5000,51.6003 27.9890,51.8826 "/>
<polygon points="30.6342,56.8612 30.0000,57.2274 29.3658,56.8612 29.3658,56.1288 30.0000,55.7626 30.6342,56.1288 "/>
<polygon points="28.1801,61.2176 27.5000,61.6103 26.8199,61.2176 26.8199,60.4324 27.5000,60.0397 28.1801,60.4324 "/>
<polygon points="30.8406,65.6403 30.0000,66.1256 29.1594,65.6403 29.1594,64.6697 30.0000,64.1844 30.8406,64.6697 "/>
<polygon points="28.3864,69.9968 27.5000,70.5085 26.6136,69.9968 26.6136,68.9732 27.5000,68.4615 28.3864,68.9732 "/>
<polygon points="31.0545,74.4238 30.0000,75.0326 28.9455,74.4238 28.9455,73.2062 30.0000,72.5974 31.0545,73.2062 "/>
<polygon points="28.6080,78.7847 27.5000,79.4244 26.3920,78.7847 26.3920,77.5053 27.5000,76.8656 28.6080,77.5053 "/>
<polygon points="31.2608,83.2029 30.0000,83.9309 28.7392,83.2029 28.7392,81.7471 30.0000,81.0191 31.2608,81.7471 "/>
<polygon points="28.8143,87.5638 27.5000,88.3226 26.1857,87.5638 26.1857,86.0462 27.5000,85.2874 28.8143,86.0462 "/>
<polygon points="31.4748,91.9865 30.0000,92.8379 28.5252,91.9865 28.5252,90.2835 30.0000,89.4321 31.4748,90.2835 "/>
<polygon points="29.0054,96.3341 27.5000,97.2032 25.9946,96.3341 25.9946,94.5959 27.5000,93.7268 29.0054,94.5959 "/>
<polygon points="35.0764,21.8991 35.0000,21.9432 34.9236,21.8991 34.9236,21.8109 35.0000,21.7668 35.0764,21.8109 "/>
<polygon points="32.5917,26.2379 32.5000,26.2909 32.4083,26.2379 32.4083,26.1321 32.5000,26.0791 32.5917,26.1321 "/>
<polygon points="35.2140,30.6385 35.0000,30.7621 34.7860,30.6385 34.7860,30.3915 35.0000,30.2679 35.2140,30.3915 "/>
<polygon points="32.7292,34.9774 32.5000,35.1097 32.2708,34.9774 32.2708,34.7126 32.5000,34.5803 32.7292,34.7126 "/>
<polygon points="35.3744,39.3912 35.0000,39.6074 34.6256,39.3912 34.6256,38.9588 35.0000,38.7426 35.3744,38.9588 "/>
<polygon points="32.9126,43.7432 32.5000,43.9815 32.0874,43.7432 32.0874,43.2668 32.5000,43.0285 32.9126,43.2668 "/>
<polygon points="35.5578,48.1571 35.0000,48.4791 34.4422,48.1571 34.4422,47.5129 35.0000,47.1909 35.5578,47.5129 "/>
<polygon points="33.1037,52.5135 32.5000,52.8621 31.8963,52.5135 31.8963,51.8165 32.5000,51.4679 33.1037,51.8165 "/>
<polygon points="35.7641,56.9362 35.0000,57.3774 34.2359,56.9362 34.2359,56.0538 35.0000,55.6126 35.7641,56.0538 "/>
<polygon points="33.3023,61.2882 32.5000,61.7515 31.6977,61.2882 31.6977,60.3618 32.5000,59.8985 33.3023,60.3618 "/>
<polygon points="35.9781,65.7197 35.0000,66.2844 34.0219,65.7197 34.0219,64.5903 35.0000,64.0256 35.9781,64.5903 "/>
<polygon points="33.5010,70.0629 32.5000,70.6409 31.4990,70.0629 31.4990,68.9071 32.5000,68.3291 33.5010,68.9071 "/>
<polygon points="36.1844,74.4988 35.0000,75.1826 33.8156,74.4988 33.8156,73.1312 35.0000,72.4474 36.1844,73.1312 "/>
<polygon points="33.7303,78.8553 32.5000,79.5656 31.2697,78.8553 31.2697,77.4347 32.5000,76.7244 33.7303,77.4347 "/>
<polygon points="36.3831,83.2735 35.0000,84.0721 33.6169,83.2735 33.6169,81.6765 35.0000,80.8779 36.3831,81.6765 "/>
<polygon points="33.9213,87.6256 32.5000,88.4462 31.0787,87.6256 31.0787,85.9844 32.5000,85.1638 33.9213,85.9844 "/>
<polygon points="36.5741,92.0438 35.0000,92.9526 33.4259,92.0438 33.4259,90.2262 35.0000,89.3174 36.5741,90.2262 "/>
<polygon points="34.1123,96.3959 32.5000,97.3268 30.8877,96.3959 30.8877,94.5341 32.5000,93.6032 34.1123,94.5341 "/>
<polygon points="40.1452,21.9388 40.0000,22.0226 39.8548,21.9388 39.8548,21.7712 40.0000,21.6874 40.1452,21.7712 "/>
<polygon points="37.6758,26.2865 37.5000,26.3879 37.3242,26.2865 37.3242,26.0835 37.5000,25.9821 37.6758,26.0835 "/>
<polygon points="40.3057,30.6915 40.0000,30.8679 39.6943,30.6915 39.6943,30.3385 40.0000,30.1621 40.3057,30.3385 "/>
<polygon points="37.8286,35.0347 37.5000,35.2244 37.1714,35.0347 37.1714,34.6553 37.5000,34.4656 37.8286,34.6553 "/>
<polygon points="40.4814,39.4529 40.0000,39.7309 39.5186,39.4529 39.5186,38.8971 40.0000,38.6191 40.4814,38.8971 "/>
<polygon points="38.0120,43.8006 37.5000,44.0962 36.9880,43.8006 36.9880,43.2094 37.5000,42.9138 38.0120,43.2094 "/>
<polygon points="40.6648,48.2188 40.0000,48.6026 39.3352,48.2188 39.3352,47.4512 40.0000,47.0674 40.6648,47.4512 "/>
<polygon points="38.2259,52.5841 37.5000,53.0032 36.7741,52.5841 36.7741,51.7459 37.5000,51.3268 38.2259,51.7459 "/>
<polygon points="40.8635,56.9935 40.0000,57.4921 39.1365,56.9935 39.1365,55.9965 40.0000,55.4979 40.8635,55.9965 "/>
<polygon points="38.4246,61.3588 37.5000,61.8926 36.5754,61.3588 36.5754,60.2912 37.5000,59.7574 38.4246,60.2912 "/>
<polygon points="41.1004,65.7903 40.0000,66.4256 38.8996,65.7903 38.8996,64.5197 40.0000,63.8844 41.1004,64.5197 "/>
<polygon points="38.6386,70.1424 37.5000,70.7997 36.3614,70.1424 36.3614,68.8276 37.5000,68.1703 38.6386,68.8276 "/>
<polygon points="41.3067,74.5694 40.0000,75.3238 38.6933,74.5694 38.6933,73.0606 40.0000,72.3062 41.3067,73.0606 "/>
<polygon points="38.8449,78.9215 37.5000,79.6979 36.1551,78.9215 36.1551,77.3685 37.5000,76.5921 38.8449,77.3685 "/>
<polygon points="41.4901,83.3353 40.0000,84.1956 38.5099,83.3353 38.5099,81.6147 40.0000,80.7544 41.4901,81.6147 "/>
<polygon points="39.0359,87.6918 37.5000,88.5785 35.9641,87.6918 35.9641,85.9182 37.5000,85.0315 39.0359,85.9182 "/>
<polygon points="41.6735,92.1012 40.0000,93.0674 38.3265,92.1012 38.3265,90.1688 40.0000,89.2026 41.6735,90.1688 "/>
<polygon points="39.1887,96.4400 37.5000,97.4150 35.8113,96.4400 35.8113,94.4900 37.5000,93.5150 39.1887,94.4900 "/>
<polygon points="45.0917,13.2479 45.0000,13.3009 44.9083,13.2479 44.9083,13.1421 45.0000,13.0891 45.0917,13.1421 "/>
<polygon points="42.6223,17.5956 42.5000,17.6662 42.3777,17.5956 42.3777,17.4544 42.5000,17.3838 42.6223,17.4544 "/>
<polygon points="45.2216,21.9829 45.0000,22.1109 44.7784,21.9829 44.7784,21.7271 45.0000,21.5991 45.2216,21.7271 "/>
<polygon points="42.7674,26.3394 42.5000,26.4938 42.2326,26.3394 42.2326,26.0306 42.5000,25.8762 42.7674,26.0306 "/>
<polygon points="45.4050,30.7488 45.0000,30.9826 44.5950,30.7488 44.5950,30.2812 45.0000,30.0474 45.4050,30.2812 "/>
<polygon points="42.9432,35.1009 42.5000,35.3568 42.0568,35.1009 42.0568,34.5891 42.5000,34.3332 42.9432,34.5891 "/>
<polygon points="45.5960,39.5191 45.0000,39.8632 44.4040,39.5191 44.4040,38.8309 45.0000,38.4868 45.5960,38.8309 "/>
<polygon points="43.1266,43.8668 42.5000,44.2285 41.8734,43.8668 41.8734,43.1432 42.5000,42.7815 43.1266,43.1432 "/>
<polygon points="45.7871,48.2894 45.0000,48.7438 44.2129,48.2894 44.2129,47.3806 45.0000,46.9262 45.7871,47.3806 "/>
<polygon points="43.3406,52.6503 42.5000,53.1356 41.6594,52.6503 41.6594,51.6797 42.5000,51.1944 43.3406,51.6797 "/>
<polygon points="46.0087,57.0774 45.0000,57.6597 43.9913,57.0774 43.9913,55.9126 45.0000,55.3303 46.0087,55.9126 "/>
<polygon points="43.5392,61.4250 42.5000,62.0250 41.4608,61.4250 41.4608,60.2250 42.5000,59.6250 43.5392,60.2250 "/>
<polygon points="46.2226,65.8609 45.0000,66.5668 43.7774,65.8609 43.7774,64.4491 45.0000,63.7432 46.2226,64.4491 "/>
<polygon points="43.7455,70.2041 42.5000,70.9232 41.2545,70.2041 41.2545,68.7659 42.5000,68.0468 43.7455,68.7659 "/>
<polygon points="46.4060,74.6268 45.0000,75.4385 43.5940,74.6268 43.5940,73.0032 45.0000,72.1915 46.4060,73.0032 "/>
<polygon points="43.9671,78.9921 42.5000,79.8391 41.0329,78.9921 41.0329,77.2979 42.5000,76.4509 43.9671,77.2979 "/>
<polygon points="46.5971,83.3971 45.0000,84.3191 43.4029,83.3971 43.4029,81.5529 45.0000,80.6309 46.5971,81.5529 "/>
<polygon points="44.1429,87.7535 42.5000,88.7021 40.8571,87.7535 40.8571,85.8565 42.5000,84.9079 44.1429,85.8565 "/>
<polygon points="46.7652,92.1541 45.0000,93.1732 43.2348,92.1541 43.2348,90.1159 45.0000,89.0968 46.7652,90.1159 "/>
<polygon points="44.2957,96.5018 42.5000,97.5385 40.7043,96.5018 40.7043,94.4282 42.5000,93.3915 44.2957,94.4282 "/>
<polygon points="50.1681,13.2921 50.0000,13.3891 49.8319,13.2921 49.8319,13.0979 50.0000,13.0009 50.1681,13.0979 "/>
<polygon points="47.6910,17.6353 47.5000,17.7456 47.3090,17.6353 47.3090,17.4147 47.5000,17.3044 47.6910,17.4147 "/>
<polygon points="50.3209,22.0403 50.0000,22.2256 49.6791,22.0403 49.6791,21.6697 50.0000,21.4844 50.3209,21.6697 "/>
<polygon points="47.8515,26.3879 47.5000,26.5909 47.1485,26.3879 47.1485,25.9821 47.5000,25.7791 47.8515,25.9821 "/>
<polygon points="50.5196,30.8150 50.0000,31.1150 49.4804,30.8150 49.4804,30.2150 50.0000,29.9150 50.5196,30.2150 "/>
<polygon points="48.0425,35.1582 47.5000,35.4715 46.9575,35.1582 46.9575,34.5318 47.5000,34.2185 48.0425,34.5318 "/>
<polygon points="50.7107,39.5853 50.0000,39.9956 49.2893,39.5853 49.2893,38.7647 50.0000,38.3544 50.7107,38.7647 "/>
<polygon points="48.2489,43.9374 47.5000,44.3697 46.7511,43.9374 46.7511,43.0726 47.5000,42.6403 48.2489,43.0726 "/>
<polygon points="50.9170,48.3644 50.0000,48.8938 49.0830,48.3644 49.0830,47.3056 50.0000,46.7762 50.9170,47.3056 "/>
<polygon points="48.4628,52.7209 47.5000,53.2768 46.5372,52.7209 46.5372,51.6091 47.5000,51.0532 48.4628,51.6091 "/>
<polygon points="51.1233,57.1435 50.0000,57.7921 48.8767,57.1435 48.8767,55.8465 50.0000,55.1979 51.1233,55.8465 "/>
<polygon points="48.6615,61.4956 47.5000,62.1662 46.3385,61.4956 46.3385,60.1544 47.5000,59.4838 48.6615,60.1544 "/>
<polygon points="51.3296,65.9226 50.0000,66.6903 48.6704,65.9226 48.6704,64.3874 50.0000,63.6197 51.3296,64.3874 "/>
<polygon points="48.8678,70.2747 47.5000,71.0644 46.1322,70.2747 46.1322,68.6953 47.5000,67.9056 48.8678,68.6953 "/>
<polygon points="51.5206,74.6929 50.0000,75.5709 48.4794,74.6929 48.4794,72.9371 50.0000,72.0591 51.5206,72.9371 "/>
<polygon points="49.0588,79.0450 47.5000,79.9450 45.9412,79.0450 45.9412,77.2450 47.5000,76.3450 49.0588,77.2450 "/>
<polygon points="51.6887,83.4500 50.0000,84.4250 48.3113,83.4500 48.3113,81.5000 50.0000,80.5250 51.6887,81.5000 "/>
<polygon points="49.2346,87.8065 47.5000,88.8079 45.7654,87.8065 45.7654,85.8035 47.5000,84.8021 49.2346,85.8035 "/>
<polygon points="51.8492,92.2026 50.0000,93.2703 48.1508,92.2026 48.1508,90.0674 50.0000,88.9997 51.8492,90.0674 "/>
<polygon points="49.3721,96.5459 47.5000,97.6268 45.6279,96.5459 45.6279,94.3841 47.5000,93.3032 49.3721,94.3841 "/>
<polygon points="55.1146,4.6012 55.0000,4.6674 54.8854,4.6012 54.8854,4.4688 55.0000,4.4026 55.1146,4.4688 "/>
<polygon points="52.6299,8.9400 52.5000,9.0150 52.3701,8.9400 52.3701,8.7900 52.5000,8.7150 52.6299,8.7900 "/>
<polygon points="55.2522,13.3406 55.0000,13.4862 54.7478,13.3406 54.7478,13.0494 55.0000,12.9038 55.2522,13.0494 "/>
<polygon points="52.7827,17.6882 52.5000,17.8515 52.2173,17.6882 52.2173,17.3618 52.5000,17.1985 52.7827,17.3618 "/>
<polygon points="55.4279,22.1021 55.0000,22.3491 54.5721,22.1021 54.5721,21.6079 55.0000,21.3609 55.4279,21.6079 "/>
<polygon points="52.9661,26.4541 52.5000,26.7232 52.0339,26.4541 52.0339,25.9159 52.5000,25.6468 52.9661,25.9159 "/>
<polygon points="55.6266,30.8768 55.0000,31.2385 54.3734,30.8768 54.3734,30.1532 55.0000,29.7915 55.6266,30.1532 "/>
<polygon points="53.1495,35.2200 52.5000,35.5950 51.8505,35.2200 51.8505,34.4700 52.5000,34.0950 53.1495,34.4700 "/>
<polygon points="55.8253,39.6515 55.0000,40.1279 54.1747,39.6515 54.1747,38.6985 55.0000,38.2221 55.8253,38.6985 "/>
<polygon points="53.3635,44.0035 52.5000,44.5021 51.6365,44.0035 51.6365,43.0065 52.5000,42.5079 53.3635,43.0065 "/>
<polygon points="56.0392,48.4350 55.0000,49.0350 53.9608,48.4350 53.9608,47.2350 55.0000,46.6350 56.0392,47.2350 "/>
<polygon points="53.5851,52.7915 52.5000,53.4179 51.4149,52.7915 51.4149,51.5385 52.5000,50.9121 53.5851,51.5385 "/>
<polygon points="56.2379,57.2097 55.0000,57.9244 53.7621,57.2097 53.7621,55.7803 55.0000,55.0656 56.2379,55.7803 "/>
<polygon points="53.7838,61.5662 52.5000,62.3074 51.2162,61.5662 51.2162,60.0838 52.5000,59.3426 53.7838,60.0838 "/>
<polygon points="56.4519,65.9932 55.0000,66.8315 53.5481,65.9932 53.5481,64.3168 55.0000,63.4785 56.4519,64.3168 "/>
<polygon points="53.9824,70.3409 52.5000,71.1968 51.0176,70.3409 51.0176,68.6291 52.5000,67.7732 53.9824,68.6291 "/>
<polygon points="56.6276,74.7547 55.0000,75.6944 53.3724,74.7547 53.3724,72.8753 55.0000,71.9356 56.6276,72.8753 "/>
<polygon points="54.1582,79.1024 52.5000,80.0597 50.8418,79.1024 50.8418,77.1876 52.5000,76.2303 54.1582,77.1876 "/>
<polygon points="56.7881,83.5074 55.0000,84.5397 53.2119,83.5074 53.2119,81.4426 55.0000,80.4103 56.7881,81.4426 "/>
<polygon points="54.3110,87.8506 52.5000,88.8962 50.6890,87.8506 50.6890,85.7594 52.5000,84.7138 54.3110,85.7594 "/>
<polygon points="56.9104,92.2379 55.0000,93.3409 53.0896,92.2379 53.0896,90.0321 55.0000,88.9291 56.9104,90.0321 "/>
<polygon points="54.4256,96.5768 52.5000,97.6885 50.5744,96.5768 50.5744,94.3532 52.5000,93.2415 54.4256,94.3532 "/>
<polygon points="60.1910,4.6453 60.0000,4.7556 59.8090,4.6453 59.8090,4.4247 60.0000,4.3144 60.1910,4.4247 "/>
<polygon points="57.7140,8.9885 57.5000,9.1121 57.2860,8.9885 57.2860,8.7415 57.5000,8.6179 57.7140,8.7415 "/>
<polygon points="60.3515,13.3979 60.0000,13.6009 59.6485,13.3979 59.6485,12.9921 60.0000,12.7891 60.3515,12.9921 "/>
<polygon points="57.8897,17.7500 57.5000,17.9750 57.1103,17.7500 57.1103,17.3000 57.5000,17.0750 57.8897,17.3000 "/>
<polygon points="60.5349,22.1638 60.0000,22.4726 59.4651,22.1638 59.4651,21.5462 60.0000,21.2374 60.5349,21.5462 "/>
<polygon points="58.0731,26.5159 57.5000,26.8468 56.9269,26.5159 56.9269,25.8541 57.5000,25.5232 58.0731,25.8541 "/>
<polygon points="60.7412,30.9429 60.0000,31.3709 59.2588,30.9429 59.2588,30.0871 60.0000,29.6591 60.7412,30.0871 "/>
<polygon points="58.2871,35.2994 57.5000,35.7538 56.7129,35.2994 56.7129,34.3906 57.5000,33.9362 58.2871,34.3906 "/>
<polygon points="60.9399,39.7176 60.0000,40.2603 59.0601,39.7176 59.0601,38.6324 60.0000,38.0897 60.9399,38.6324 "/>
<polygon points="58.5010,44.0829 57.5000,44.6609 56.4990,44.0829 56.4990,42.9271 57.5000,42.3491 58.5010,42.9271 "/>
<polygon points="61.1539,48.5012 60.0000,49.1674 58.8461,48.5012 58.8461,47.1688 60.0000,46.5026 61.1539,47.1688 "/>
<polygon points="58.6997,52.8576 57.5000,53.5503 56.3003,52.8576 56.3003,51.4724 57.5000,50.7797 58.6997,51.4724 "/>
<polygon points="61.3602,57.2803 60.0000,58.0656 58.6398,57.2803 58.6398,55.7097 60.0000,54.9244 61.3602,55.7097 "/>
<polygon points="58.8984,61.6324 57.5000,62.4397 56.1016,61.6324 56.1016,60.0176 57.5000,59.2103 58.8984,60.0176 "/>
<polygon points="61.5588,66.0550 60.0000,66.9550 58.4412,66.0550 58.4412,64.2550 60.0000,63.3550 61.5588,64.2550 "/>
<polygon points="59.0818,70.3982 57.5000,71.3115 55.9182,70.3982 55.9182,68.5718 57.5000,67.6585 59.0818,68.5718 "/>
<polygon points="61.7270,74.8121 60.0000,75.8091 58.2730,74.8121 58.2730,72.8179 60.0000,71.8209 61.7270,72.8179 "/>
<polygon points="59.2575,79.1597 57.5000,80.1744 55.7425,79.1597 55.7425,77.1303 57.5000,76.1156 59.2575,77.1303 "/>
<polygon points="61.8645,83.5515 60.0000,84.6279 58.1355,83.5515 58.1355,81.3985 60.0000,80.3221 61.8645,81.3985 "/>
<polygon points="59.3874,87.8947 57.5000,88.9844 55.6126,87.8947 55.6126,85.7153 57.5000,84.6256 59.3874,85.7153 "/>
<polygon points="61.9486,92.2600 60.0000,93.3850 58.0514,92.2600 58.0514,90.0100 60.0000,88.8850 61.9486,90.0100 "/>
<polygon points="59.4486,96.5900 57.5000,97.7150 55.5514,96.5900 55.5514,94.3400 57.5000,93.2150 59.4486,94.3400 "/>
<polygon points="65.2751,4.6938 65.0000,4.8526 64.7249,4.6938 64.7249,4.3762 65.0000,4.2174 65.2751,4.3762 "/>
<polygon points="62.8133,9.0459 62.5000,9.2268 62.1867,9.0459 62.1867,8.6841 62.5000,8.5032 62.8133,8.6841 "/>
<polygon points="65.4661,13.4641 65.0000,13.7332 64.5339,13.4641 64.5339,12.9259 65.0000,12.6568 65.4661,12.9259 "/>
<polygon points="62.9967,17.8118 62.5000,18.0985 62.0033,17.8118 62.0033,17.2382 62.5000,16.9515 62.9967,17.2382 "/>
<polygon points="65.6572,22.2344 65.0000,22.6138 64.3428,22.2344 64.3428,21.4756 65.0000,21.0962 65.6572,21.4756 "/>
<polygon points="63.1877,26.5821 62.5000,26.9791 61.8123,26.5821 61.8123,25.7879 62.5000,25.3909 63.1877,25.7879 "/>
<polygon points="65.8635,31.0135 65.0000,31.5121 64.1365,31.0135 64.1365,30.0165 65.0000,29.5179 65.8635,30.0165 "/>
<polygon points="63.3864,35.3568 62.5000,35.8685 61.6136,35.3568 61.6136,34.3332 62.5000,33.8215 63.3864,34.3332 "/>
<polygon points="66.0774,39.7971 65.0000,40.4191 63.9226,39.7971 63.9226,38.5529 65.0000,37.9309 66.0774,38.5529 "/>
<polygon points="63.6233,44.1535 62.5000,44.8021 61.3767,44.1535 61.3767,42.8565 62.5000,42.2079 63.6233,42.8565 "/>
<polygon points="66.2761,48.5718 65.0000,49.3085 63.7239,48.5718 63.7239,47.0982 65.0000,46.3615 66.2761,47.0982 "/>
<polygon points="63.8143,52.9238 62.5000,53.6826 61.1857,52.9238 61.1857,51.4062 62.5000,50.6474 63.8143,51.4062 "/>
<polygon points="66.4671,57.3421 65.0000,58.1891 63.5329,57.3421 63.5329,55.6479 65.0000,54.8009 66.4671,55.6479 "/>
<polygon points="64.0130,61.6985 62.5000,62.5721 60.9870,61.6985 60.9870,59.9515 62.5000,59.0779 64.0130,59.9515 "/>
<polygon points="66.6505,66.1079 65.0000,67.0609 63.3495,66.1079 63.3495,64.2021 65.0000,63.2491 66.6505,64.2021 "/>
<polygon points="64.1811,70.4556 62.5000,71.4262 60.8189,70.4556 60.8189,68.5144 62.5000,67.5438 64.1811,68.5144 "/>
<polygon points="66.8034,74.8562 65.0000,75.8974 63.1966,74.8562 63.1966,72.7738 65.0000,71.7326 66.8034,72.7738 "/>
<polygon points="64.3416,79.2082 62.5000,80.2715 60.6584,79.2082 60.6584,77.0818 62.5000,76.0185 64.3416,77.0818 "/>
<polygon points="66.9180,83.5824 65.0000,84.6897 63.0820,83.5824 63.0820,81.3676 65.0000,80.2603 66.9180,81.3676 "/>
<polygon points="64.4409,87.9256 62.5000,89.0462 60.5591,87.9256 60.5591,85.6844 62.5000,84.5638 64.4409,85.6844 "/>
<polygon points="66.9486,92.2600 65.0000,93.3850 63.0514,92.2600 63.0514,90.0100 65.0000,88.8850 66.9486,90.0100 "/>
<polygon points="64.4486,96.5900 62.5000,97.7150 60.5514,96.5900 60.5514,94.3400 62.5000,93.2150 64.4486,94.3400 "/>
<polygon points="70.3821,4.7556 70.0000,4.9762 69.6179,4.7556 69.6179,4.3144 70.0000,4.0938 70.3821,4.3144 "/>
<polygon points="67.9126,9.1032 67.5000,9.3415 67.0874,9.1032 67.0874,8.6268 67.5000,8.3885 67.9126,8.6268 "/>
<polygon points="70.5578,13.5171 70.0000,13.8391 69.4422,13.5171 69.4422,12.8729 70.0000,12.5509 70.5578,12.8729 "/>
<polygon points="68.1037,17.8735 67.5000,18.2221 66.8963,17.8735 66.8963,17.1765 67.5000,16.8279 68.1037,17.1765 "/>
<polygon points="70.7641,22.2962 70.0000,22.7374 69.2359,22.2962 69.2359,21.4138 70.0000,20.9726 70.7641,21.4138 "/>
<polygon points="68.3023,26.6482 67.5000,27.1115 66.6977,26.6482 66.6977,25.7218 67.5000,25.2585 68.3023,25.7218 "/>
<polygon points="70.9857,31.0841 70.0000,31.6532 69.0143,31.0841 69.0143,29.9459 70.0000,29.3768 70.9857,29.9459 "/>
<polygon points="68.5087,35.4274 67.5000,36.0097 66.4913,35.4274 66.4913,34.2626 67.5000,33.6803 68.5087,34.2626 "/>
<polygon points="71.1921,39.8632 70.0000,40.5515 68.8079,39.8632 68.8079,38.4868 70.0000,37.7985 71.1921,38.4868 "/>
<polygon points="68.7303,44.2153 67.5000,44.9256 66.2697,44.2153 66.2697,42.7947 67.5000,42.0844 68.7303,42.7947 "/>
<polygon points="71.3831,48.6335 70.0000,49.4321 68.6169,48.6335 68.6169,47.0365 70.0000,46.2379 71.3831,47.0365 "/>
<polygon points="68.9442,52.9988 67.5000,53.8326 66.0558,52.9988 66.0558,51.3312 67.5000,50.4974 68.9442,51.3312 "/>
<polygon points="71.5818,57.4082 70.0000,58.3215 68.4182,57.4082 68.4182,55.5818 70.0000,54.6685 71.5818,55.5818 "/>
<polygon points="69.1123,61.7559 67.5000,62.6868 65.8877,61.7559 65.8877,59.8941 67.5000,58.9632 69.1123,59.8941 "/>
<polygon points="71.7499,66.1653 70.0000,67.1756 68.2501,66.1653 68.2501,64.1447 70.0000,63.1344 71.7499,64.1447 "/>
<polygon points="69.2652,70.5041 67.5000,71.5232 65.7348,70.5041 65.7348,68.4659 67.5000,67.4468 69.2652,68.4659 "/>
<polygon points="71.8798,74.9003 70.0000,75.9856 68.1202,74.9003 68.1202,72.7297 70.0000,71.6444 71.8798,72.7297 "/>
<polygon points="69.4027,79.2435 67.5000,80.3421 65.5973,79.2435 65.5973,77.0465 67.5000,75.9479 69.4027,77.0465 "/>
<polygon points="71.9486,83.6000 70.0000,84.7250 68.0514,83.6000 68.0514,81.3500 70.0000,80.2250 71.9486,81.3500 "/>
<polygon points="69.4486,87.9300 67.5000,89.0550 65.5514,87.9300 65.5514,85.6800 67.5000,84.5550 69.4486,85.6800 "/>
<polygon points="71.9486,92.2600 70.0000,93.3850 68.0514,92.2600 68.0514,90.0100 70.0000,88.8850 71.9486,90.0100 "/>
<polygon points="69.4486,96.5900 67.5000,97.7150 65.5514,96.5900 65.5514,94.3400 67.5000,93.2150 69.4486,94.3400 "/>
<polygon points="75.4890,4.8174 75.0000,5.0997 74.5110,4.8174 74.5110,4.2526 75.0000,3.9703 75.4890,4.2526 "/>
<polygon points="73.0120,9.1606 72.5000,9.4562 71.9880,9.1606 71.9880,8.5694 72.5000,8.2738 73.0120,8.5694 "/>
<polygon points="75.6877,13.5921 75.0000,13.9891 74.3123,13.5921 74.3123,12.7979 75.0000,12.4009 75.6877,12.7979 "/>
<polygon points="73.2336,17.9485 72.5000,18.3721 71.7664,17.9485 71.7664,17.1015 72.5000,16.6779 73.2336,17.1015 "/>
<polygon points="75.8864,22.3668 75.0000,22.8785 74.1136,22.3668 74.1136,21.3432 75.0000,20.8315 75.8864,21.3432 "/>
<polygon points="73.4323,26.7232 72.5000,27.2615 71.5677,26.7232 71.5677,25.6468 72.5000,25.1085 73.4323,25.6468 "/>
<polygon points="76.1080,31.1547 75.0000,31.7944 73.8920,31.1547 73.8920,29.8753 75.0000,29.2356 76.1080,29.8753 "/>
<polygon points="73.6386,35.5024 72.5000,36.1597 71.3614,35.5024 71.3614,34.1876 72.5000,33.5303 73.6386,34.1876 "/>
<polygon points="76.3143,39.9338 75.0000,40.6926 73.6857,39.9338 73.6857,38.4162 75.0000,37.6574 76.3143,38.4162 "/>
<polygon points="73.8525,44.2859 72.5000,45.0668 71.1475,44.2859 71.1475,42.7241 72.5000,41.9432 73.8525,42.7241 "/>
<polygon points="76.5054,48.7041 75.0000,49.5732 73.4946,48.7041 73.4946,46.9659 75.0000,46.0968 76.5054,46.9659 "/>
<polygon points="74.0512,53.0606 72.5000,53.9562 70.9488,53.0606 70.9488,51.2694 72.5000,50.3738 74.0512,51.2694 "/>
<polygon points="76.6811,57.4656 75.0000,58.4362 73.3189,57.4656 73.3189,55.5244 75.0000,54.5538 76.6811,55.5244 "/>
<polygon points="74.2117,61.8132 72.5000,62.8015 70.7883,61.8132 70.7883,59.8368 72.5000,58.8485 74.2117,59.8368 "/>
<polygon points="76.8339,66.2138 75.0000,67.2726 73.1661,66.2138 73.1661,64.0962 75.0000,63.0374 76.8339,64.0962 "/>
<polygon points="74.3492,70.5526 72.5000,71.6203 70.6508,70.5526 70.6508,68.4174 72.5000,67.3497 74.3492,68.4174 "/>
<polygon points="76.9333,74.9312 75.0000,76.0474 73.0667,74.9312 73.0667,72.6988 75.0000,71.5826 76.9333,72.6988 "/>
<polygon points="74.4486,79.2700 72.5000,80.3950 70.5514,79.2700 70.5514,77.0200 72.5000,75.8950 74.4486,77.0200 "/>
<polygon points="76.9486,83.6000 75.0000,84.7250 73.0514,83.6000 73.0514,81.3500 75.0000,80.2250 76.9486,81.3500 "/>
<polygon points="74.4486,87.9300 72.5000,89.0550 70.5514,87.9300 70.5514,85.6800 72.5000,84.5550 74.4486,85.6800 "/>
<polygon points="76.9486,92.2600 75.0000,93.3850 73.0514,92.2600 73.0514,90.0100 75.0000,88.8850 76.9486,90.0100 "/>
<polygon points="74.4486,96.5900 72.5000,97.7150 70.5514,96.5900 70.5514,94.3400 72.5000,93.2150 74.4486,94.3400 "/>
<polygon points="80.5960,4.8791 80.0000,5.2232 79.4040,4.8791 79.4040,4.1909 80.0000,3.8468 80.5960,4.1909 "/>
<polygon points="78.1342,9.2312 77.5000,9.5974 76.8658,9.2312 76.8658,8.4988 77.5000,8.1326 78.1342,8.4988 "/>
<polygon points="80.8023,13.6582 80.0000,14.1215 79.1977,13.6582 79.1977,12.7318 80.0000,12.2685 80.8023,12.7318 "/>
<polygon points="78.3406,18.0103 77.5000,18.4956 76.6594,18.0103 76.6594,17.0397 77.5000,16.5544 78.3406,17.0397 "/>
<polygon points="81.0087,22.4374 80.0000,23.0197 78.9913,22.4374 78.9913,21.2726 80.0000,20.6903 81.0087,21.2726 "/>
<polygon points="78.5622,26.7982 77.5000,27.4115 76.4378,26.7982 76.4378,25.5718 77.5000,24.9585 78.5622,25.5718 "/>
<polygon points="81.2379,31.2297 80.0000,31.9444 78.7621,31.2297 78.7621,29.8003 80.0000,29.0856 81.2379,29.8003 "/>
<polygon points="78.7608,35.5729 77.5000,36.3009 76.2392,35.5729 76.2392,34.1171 77.5000,33.3891 78.7608,34.1171 "/>
<polygon points="81.4289,40.0000 80.0000,40.8250 78.5711,40.0000 78.5711,38.3500 80.0000,37.5250 81.4289,38.3500 "/>
<polygon points="78.9748,44.3565 77.5000,45.2079 76.0252,44.3565 76.0252,42.6535 77.5000,41.8021 78.9748,42.6535 "/>
<polygon points="81.6047,48.7615 80.0000,49.6879 78.3953,48.7615 78.3953,46.9085 80.0000,45.9821 81.6047,46.9085 "/>
<polygon points="79.1429,53.1135 77.5000,54.0621 75.8571,53.1135 75.8571,51.2165 77.5000,50.2679 79.1429,51.2165 "/>
<polygon points="81.7652,57.5141 80.0000,58.5332 78.2348,57.5141 78.2348,55.4759 80.0000,54.4568 81.7652,55.4759 "/>
<polygon points="79.2957,61.8618 77.5000,62.8985 75.7043,61.8618 75.7043,59.7882 77.5000,58.7515 79.2957,59.7882 "/>
<polygon points="81.8874,66.2447 80.0000,67.3344 78.1126,66.2447 78.1126,64.0653 80.0000,62.9756 81.8874,64.0653 "/>
<polygon points="79.4104,70.5879 77.5000,71.6909 75.5896,70.5879 75.5896,68.3821 77.5000,67.2791 79.4104,68.3821 "/>
<polygon points="81.9486,74.9400 80.0000,76.0650 78.0514,74.9400 78.0514,72.6900 80.0000,71.5650 81.9486,72.6900 "/>
<polygon points="79.4486,79.2700 77.5000,80.3950 75.5514,79.2700 75.5514,77.0200 77.5000,75.8950 79.4486,77.0200 "/>
<polygon points="81.9486,83.6000 80.0000,84.7250 78.0514,83.6000 78.0514,81.3500 80.0000,80.2250 81.9486,81.3500 "/>
<polygon points="79.4486,87.9300 77.5000,89.0550 75.5514,87.9300 75.5514,85.6800 77.5000,84.5550 79.4486,85.6800 "/>
<polygon points="81.9486,92.2600 80.0000,93.3850 78.0514,92.2600 78.0514,90.0100 80.0000,88.8850 81.9486,90.0100 "/>
<polygon points="79.4486,96.5900 77.5000,97.7150 75.5514,96.5900 75.5514,94.3400 77.5000,93.2150 79.4486,94.3400 "/>
<polygon points="85.7107,4.9453 85.0000,5.3556 84.2893,4.9453 84.2893,4.1247 85.0000,3.7144 85.7107,4.1247 "/>
<polygon points="83.2565,9.3018 82.5000,9.7385 81.7435,9.3018 81.7435,8.4282 82.5000,7.9915 83.2565,8.4282 "/>
<polygon points="85.9246,13.7288 85.0000,14.2626 84.0754,13.7288 84.0754,12.6612 85.0000,12.1274 85.9246,12.6612 "/>
<polygon points="83.4781,18.0897 82.5000,18.6544 81.5219,18.0897 81.5219,16.9603 82.5000,16.3956 83.4781,16.9603 "/>
<polygon points="86.1386,22.5124 85.0000,23.1697 83.8614,22.5124 83.8614,21.1976 85.0000,20.5403 86.1386,21.1976 "/>
<polygon points="83.6768,26.8644 82.5000,27.5438 81.3232,26.8644 81.3232,25.5056 82.5000,24.8262 83.6768,25.5056 "/>
<polygon points="86.3449,31.2915 85.0000,32.0679 83.6551,31.2915 83.6551,29.7385 85.0000,28.9621 86.3449,29.7385 "/>
<polygon points="83.8755,35.6391 82.5000,36.4332 81.1245,35.6391 81.1245,34.0509 82.5000,33.2568 83.8755,34.0509 "/>
<polygon points="86.5283,40.0574 85.0000,40.9397 83.4717,40.0574 83.4717,38.2926 85.0000,37.4103 86.5283,38.2926 "/>
<polygon points="84.0665,44.4094 82.5000,45.3138 80.9335,44.4094 80.9335,42.6006 82.5000,41.6962 84.0665,42.6006 "/>
<polygon points="86.6887,48.8100 85.0000,49.7850 83.3113,48.8100 83.3113,46.8600 85.0000,45.8850 86.6887,46.8600 "/>
<polygon points="84.2346,53.1665 82.5000,54.1679 80.7654,53.1665 80.7654,51.1635 82.5000,50.1621 84.2346,51.1635 "/>
<polygon points="86.8416,57.5582 85.0000,58.6215 83.1584,57.5582 83.1584,55.4318 85.0000,54.3685 86.8416,55.4318 "/>
<polygon points="84.3721,61.9059 82.5000,62.9868 80.6279,61.9059 80.6279,59.7441 82.5000,58.6632 84.3721,59.7441 "/>
<polygon points="86.9486,66.2800 85.0000,67.4050 83.0514,66.2800 83.0514,64.0300 85.0000,62.9050 86.9486,64.0300 "/>
<polygon points="84.4486,70.6100 82.5000,71.7350 80.5514,70.6100 80.5514,68.3600 82.5000,67.2350 84.4486,68.3600 "/>
<polygon points="86.9486,74.9400 85.0000,76.0650 83.0514,74.9400 83.0514,72.6900 85.0000,71.5650 86.9486,72.6900 "/>
<polygon points="84.4486,79.2700 82.5000,80.3950 80.5514,79.2700 80.5514,77.0200 82.5000,75.8950 84.4486,77.0200 "/>
<polygon points="86.9486,83.6000 85.0000,84.7250 83.0514,83.6000 83.0514,81.3500 85.0000,80.2250 86.9486,81.3500 "/>
<polygon points="84.4486,87.9300 82.5000,89.0550 80.5514,87.9300 80.5514,85.6800 82.5000,84.5550 84.4486,85.6800 "/>
<polygon points="86.9486,92.2600 85.0000,93.3850 83.0514,92.2600 83.0514,90.0100 85.0000,88.8850 86.9486,90.0100 "/>
<polygon points="84.4486,96.5900 82.5000,97.7150 80.5514,96.5900 80.5514,94.3400 82.5000,93.2150 84.4486,94.3400 "/>
<polygon points="90.8329,5.0159 90.0000,5.4968 89.1671,5.0159 89.1671,4.0541 90.0000,3.5732 90.8329,4.0541 "/>
<polygon points="88.3788,9.3724 87.5000,9.8797 86.6212,9.3724 86.6212,8.3576 87.5000,7.8503 88.3788,8.3576 "/>
<polygon points="91.0469,13.7994 90.0000,14.4038 88.9531,13.7994 88.9531,12.5906 90.0000,11.9862 91.0469,12.5906 "/>
<polygon points="88.5927,18.1559 87.5000,18.7868 86.4073,18.1559 86.4073,16.8941 87.5000,16.2632 88.5927,16.8941 "/>
<polygon points="91.2532,22.5785 90.0000,23.3021 88.7468,22.5785 88.7468,21.1315 90.0000,20.4079 91.2532,21.1315 "/>
<polygon points="88.7990,26.9350 87.5000,27.6850 86.2010,26.9350 86.2010,25.4350 87.5000,24.6850 88.7990,25.4350 "/>
<polygon points="91.4671,31.3621 90.0000,32.2091 88.5329,31.3621 88.5329,29.6679 90.0000,28.8209 91.4671,29.6679 "/>
<polygon points="88.9901,35.7053 87.5000,36.5656 86.0099,35.7053 86.0099,33.9847 87.5000,33.1244 88.9901,33.9847 "/>
<polygon points="91.6429,40.1235 90.0000,41.0721 88.3571,40.1235 88.3571,38.2265 90.0000,37.2779 91.6429,38.2265 "/>
<polygon points="89.1887,44.4800 87.5000,45.4550 85.8113,44.4800 85.8113,42.5300 87.5000,41.5550 89.1887,42.5300 "/>
<polygon points="91.7881,48.8674 90.0000,49.8997 88.2119,48.8674 88.2119,46.8026 90.0000,45.7703 91.7881,46.8026 "/>
<polygon points="89.3263,53.2194 87.5000,54.2738 85.6737,53.2194 85.6737,51.1106 87.5000,50.0562 89.3263,51.1106 "/>
<polygon points="91.9104,57.5979 90.0000,58.7009 88.0896,57.5979 88.0896,55.3921 90.0000,54.2891 91.9104,55.3921 "/>
<polygon points="89.4256,61.9368 87.5000,63.0485 85.5744,61.9368 85.5744,59.7132 87.5000,58.6015 89.4256,59.7132 "/>
<polygon points="91.9486,66.2800 90.0000,67.4050 88.0514,66.2800 88.0514,64.0300 90.0000,62.9050 91.9486,64.0300 "/>
<polygon points="89.4486,70.6100 87.5000,71.7350 85.5514,70.6100 85.5514,68.3600 87.5000,67.2350 89.4486,68.3600 "/>
<polygon points="91.9486,74.9400 90.0000,76.0650 88.0514,74.9400 88.0514,72.6900 90.0000,71.5650 91.9486,72.6900 "/>
<polygon points="89.4486,79.2700 87.5000,80.3950 85.5514,79.2700 85.5514,77.0200 87.5000,75.8950 89.4486,77.0200 "/>
<polygon points="91.9486,83.6000 90.0000,84.7250 88.0514,83.6000 88.0514,81.3500 90.0000,80.2250 91.9486,81.3500 "/>
<polygon points="89.4486,87.9300 87.5000,89.0550 85.5514,87.9300 85.5514,85.6800 87.5000,84.5550 89.4486,85.6800 "/>
<polygon points="91.9486,92.2600 90.0000,93.3850 88.0514,92.2600 88.0514,90.0100 90.0000,88.8850 91.9486,90.0100 "/>
<polygon points="89.4486,96.5900 87.5000,97.7150 85.5514,96.5900 85.5514,94.3400 87.5000,93.2150 89.4486,94.3400 "/>
<polygon points="95.9628,5.0909 95.0000,5.6468 94.0372,5.0909 94.0372,3.9791 95.0000,3.4232 95.9628,3.9791 "/>
<polygon points="93.4934,9.4385 92.5000,10.0121 91.5066,9.4385 91.5066,8.2915 92.5000,7.7179 93.4934,8.2915 "/>
<polygon points="96.1691,13.8700 95.0000,14.5450 93.8309,13.8700 93.8309,12.5200 95.0000,11.8450 96.1691,12.5200 "/>
<polygon points="93.7150,18.2265 92.5000,18.9279 91.2850,18.2265 91.2850,16.8235 92.5000,16.1221 93.7150,16.8235 "/>
<polygon points="96.3678,22.6447 95.0000,23.4344 93.6322,22.6447 93.6322,21.0653 95.0000,20.2756 96.3678,21.0653 "/>
<polygon points="93.9060,26.9968 92.5000,27.8085 91.0940,26.9968 91.0940,25.3732 92.5000,24.5615 93.9060,25.3732 "/>
<polygon points="96.5665,31.4194 95.0000,32.3238 93.4335,31.4194 93.4335,29.6106 95.0000,28.7062 96.5665,29.6106 "/>
<polygon points="94.0971,35.7671 92.5000,36.6891 90.9029,35.7671 90.9029,33.9229 92.5000,33.0009 94.0971,33.9229 "/>
<polygon points="96.7346,40.1765 95.0000,41.1779 93.2654,40.1765 93.2654,38.1735 95.0000,37.1721 96.7346,38.1735 "/>
<polygon points="94.2652,44.5241 92.5000,45.5432 90.7348,44.5241 90.7348,42.4859 92.5000,41.4668 94.2652,42.4859 "/>
<polygon points="96.8645,48.9115 95.0000,49.9879 93.1355,48.9115 93.1355,46.7585 95.0000,45.6821 96.8645,46.7585 "/>
<polygon points="94.3874,53.2547 92.5000,54.3444 90.6126,53.2547 90.6126,51.0753 92.5000,49.9856 94.3874,51.0753 "/>
<polygon points="96.9486,57.6200 95.0000,58.7450 93.0514,57.6200 93.0514,55.3700 95.0000,54.2450 96.9486,55.3700 "/>
<polygon points="94.4486,61.9500 92.5000,63.0750 90.5514,61.9500 90.5514,59.7000 92.5000,58.5750 94.4486,59.7000 "/>
<polygon points="96.9486,66.2800 95.0000,67.4050 93.0514,66.2800 93.0514,64.0300 95.0000,62.9050 96.9486,64.0300 "/>
<polygon points="94.4486,70.6100 92.5000,71.7350 90.5514,70.6100 90.5514,68.3600 92.5000,67.2350 94.4486,68.3600 "/>
<polygon points="96.9486,74.9400 95.0000,76.0650 93.0514,74.9400 93.0514,72.6900 95.0000,71.5650 96.9486,72.6900 "/>
<polygon points="94.4486,79.2700 92.5000,80.3950 90.5514,79.2700 90.5514,77.0200 92.5000,75.8950 94.4486,77.0200 "/>
<polygon points="96.9486,83.6000 95.0000,84.7250 93.0514,83.6000 93.0514,81.3500 95.0000,80.2250 96.9486,81.3500 "/>
<polygon points="94.4486,87.9300 92.5000,89.0550 90.5514,87.9300 90.5514,85.6800 92.5000,84.5550 94.4486,85.6800 "/>
<polygon points="96.9486,92.2600 95.0000,93.3850 93.0514,92.2600 93.0514,90.0100 95.0000,88.8850 96.9486,90.0100 "/>
<polygon points="94.4486,96.5900 92.5000,97.7150 90.5514,96.5900 90.5514,94.3400 92.5000,93.2150 94.4486,94.3400 "/>
<polygon points="98.6233,9.5135 97.5000,10.1621 96.3767,9.5135 96.3767,8.2165 97.5000,7.5679 98.6233,8.2165 "/>
<polygon points="98.8372,18.2971 97.5000,19.0691 96.1628,18.2971 96.1628,16.7529 97.5000,15.9809 98.8372,16.7529 "/>
<polygon points="99.0283,27.0674 97.5000,27.9497 95.9717,27.0674 95.9717,25.3026 97.5000,24.4203 99.0283,25.3026 "/>
<polygon points="99.1887,35.8200 97.5000,36.7950 95.8113,35.8200 95.8113,33.8700 97.5000,32.8950 99.1887,33.8700 "/>
<polygon points="99.3416,44.5682 97.5000,45.6315 95.6584,44.5682 95.6584,42.4418 97.5000,41.3785 99.3416,42.4418 "/>
<polygon points="99.4486,53.2900 97.5000,54.4150 95.5514,53.2900 95.5514,51.0400 97.5000,49.9150 99.4486,51.0400 "/>
<polygon points="99.4486,61.9500 97.5000,63.0750 95.5514,61.9500 95.5514,59.7000 97.5000,58.5750 99.4486,59.7000 "/>
<polygon points="99.4486,70.6100 97.5000,71.7350 95.5514,70.6100 95.5514,68.3600 97.5000,67.2350 99.4486,68.3600 "/>
<polygon points="99.4486,79.2700 97.5000,80.3950 95.5514,79.2700 95.5514,77.0200 97.5000,75.8950 99.4486,77.0200 "/>
<polygon points="99.4486,87.9300 97.5000,89.0550 95.5514,87.9300 95.5514,85.6800 97.5000,84.5550 99.4486,85.6800 "/>
<polygon points="99.4486,96.5900 97.5000,97.7150 95.5514,96.5900 95.5514,94.3400 97.5000,93.2150 99.4486,94.3400 "/></g></svg>