<?xml version="1.0" encoding="UTF-8" standalone="no"?>

<svg width="100mm" height="100mm" viewBox="0 0 100 100" xmlns="http://www.w3.org/2000/svg">
<rect width="100%" height="100%" fill="black"/>
<g fill="white">
<circle cx="27.7215" cy="32.8090" r="0.132"/>
<circle cx="36.1338" cy="31.7345" r="0.265"/>
<circle cx="28.9190" cy="40.9265" r="0.309"/>
<circle cx="35.1389" cy="41.3565" r="0.476"/>
<circle cx="21.2755" cy="37.3409" r="0.106"/>
<circle cx="36.0779" cy="22.9680" r="0.124"/>
<circle cx="32.4421" cy="36.8348" r="0.300"/>
<circle cx="30.5437" cy="50.4432" r="0.600"/>
<circle cx="39.8590" cy="37.5214" r="0.494"/>
<circle cx="45.1924" cy="21.4750" r="0.247"/>
<circle cx="20.5521" cy="45.0649" r="0.238"/>
<circle cx="30.2053" cy="59.3465" r="0.812"/>
<circle cx="21.8850" cy="62.6622" r="0.679"/>
<circle cx="14.6132" cy="42.7188" r="0.097"/>
<circle cx="37.2477" cy="46.4411" r="0.644"/>
<circle cx="28.8522" cy="65.5974" r="0.953"/>
<circle cx="39.5561" cy="53.2066" r="0.909"/>
<circle cx="41.2145" cy="32.3748" r="0.406"/>
<circle cx="24.8890" cy="53.7424" r="0.529"/>
<circle cx="36.2855" cy="58.0873" r="0.962"/>
<circle cx="38.7558" cy="62.6333" r="1.138"/>
<circle cx="17.9406" cy="57.6424" r="0.450"/>
<circle cx="14.9963" cy="49.0142" r="0.203"/>
<circle cx="41.5785" cy="43.9028" r="0.706"/>
<circle cx="20.3696" cy="51.0927" r="0.362"/>
<circle cx="48.4494" cy="45.1214" r="0.935"/>
<circle cx="45.2156" cy="26.9948" r="0.371"/>
<circle cx="25.1024" cy="58.7515" r="0.671"/>
<circle cx="54.4730" cy="23.5298" r="0.521"/>
<circle cx="39.4459" cy="27.6847" r="0.256"/>
<circle cx="28.0944" cy="45.8872" r="0.424"/>
<circle cx="49.2966" cy="18.4188" r="0.282"/>
<circle cx="47.1929" cy="11.8888" r="0.106"/>
<circle cx="48.0097" cy="33.3715" r="0.591"/>
<circle cx="58.3863" cy="15.2976" r="0.406"/>
<circle cx="48.8754" cy="39.3736" r="0.776"/>
<circle cx="54.0040" cy="10.9798" r="0.221"/>
<circle cx="43.6625" cy="59.1046" r="1.191"/>
<circle cx="62.0743" cy="22.7148" r="0.697"/>
<circle cx="48.4356" cy="55.8402" r="1.226"/>
<circle cx="54.3466" cy="34.4561" r="0.785"/>
<circle cx="48.7434" cy="62.3613" r="1.412"/>
<circle cx="54.9992" cy="43.6158" r="1.068"/>
<circle cx="37.9432" cy="69.0170" r="1.315"/>
<circle cx="64.5121" cy="18.2512" r="0.635"/>
<circle cx="44.9929" cy="50.3406" r="0.971"/>
<circle cx="43.0865" cy="70.8880" r="1.509"/>
<circle cx="54.7499" cy="64.7020" r="1.650"/>
<circle cx="46.9086" cy="67.1940" r="1.500"/>
<circle cx="12.3631" cy="56.3342" r="0.291"/>
<circle cx="51.1132" cy="50.9562" r="1.165"/>
<circle cx="14.2589" cy="62.5137" r="0.485"/>
<circle cx="66.0473" cy="30.0538" r="0.997"/>
<circle cx="6.0303" cy="57.0404" r="0.194"/>
<circle cx="56.8952" cy="2.6603" r="0.124"/>
<circle cx="60.9969" cy="65.4808" r="1.809"/>
<circle cx="70.2667" cy="24.3608" r="0.953"/>
<circle cx="56.7917" cy="73.8086" r="1.906"/>
<circle cx="59.3338" cy="8.1538" r="0.265"/>
<circle cx="6.7092" cy="63.3376" r="0.326"/>
<circle cx="56.5211" cy="54.5904" r="1.429"/>
<circle cx="51.2363" cy="69.9999" r="1.685"/>
<circle cx="60.6314" cy="27.7380" r="0.776"/>
<circle cx="4.3446" cy="70.3961" r="0.432"/>
<circle cx="50.9191" cy="29.0905" r="0.565"/>
<circle cx="60.8024" cy="40.7895" r="1.147"/>
<circle cx="66.8091" cy="7.8540" r="0.424"/>
<circle cx="74.2392" cy="3.2758" r="0.494"/>
<circle cx="48.1939" cy="75.0076" r="1.747"/>
<circle cx="60.6240" cy="48.3951" r="1.368"/>
<circle cx="15.0121" cy="69.3794" r="0.679"/>
<circle cx="10.6299" cy="71.8165" r="0.635"/>
<circle cx="11.7956" cy="77.1780" r="0.812"/>
<circle cx="60.0519" cy="33.9206" r="0.944"/>
<circle cx="80.7433" cy="7.4611" r="0.768"/>
<circle cx="24.9459" cy="70.9159" r="0.988"/>
<circle cx="83.6769" cy="11.5500" r="0.971"/>
<circle cx="41.1669" cy="80.0032" r="1.712"/>
<circle cx="30.3353" cy="75.2761" r="1.271"/>
<circle cx="68.2330" cy="2.5623" r="0.353"/>
<circle cx="65.5338" cy="35.4512" r="1.138"/>
<circle cx="71.6691" cy="14.6102" r="0.741"/>
<circle cx="23.4408" cy="76.0119" r="1.085"/>
<circle cx="62.9989" cy="4.5573" r="0.265"/>
<circle cx="74.8099" cy="33.4772" r="1.332"/>
<circle cx="65.3283" cy="68.8068" r="1.985"/>
<circle cx="62.1629" cy="53.8685" r="1.553"/>
<circle cx="5.7234" cy="77.8733" r="0.662"/>
<circle cx="13.1359" cy="83.7587" r="1.024"/>
<circle cx="20.2315" cy="84.9255" r="1.253"/>
<circle cx="65.5226" cy="46.5921" r="1.465"/>
<circle cx="68.0463" cy="58.0341" r="1.826"/>
<circle cx="55.7478" cy="59.6722" r="1.544"/>
<circle cx="32.5635" cy="70.4870" r="1.191"/>
<circle cx="48.7370" cy="86.5109" r="2.021"/>
<circle cx="33.3648" cy="80.0344" r="1.482"/>
<circle cx="38.3067" cy="75.4684" r="1.491"/>
<circle cx="63.9241" cy="12.7907" r="0.476"/>
<circle cx="17.0517" cy="75.6463" r="0.909"/>
<circle cx="73.6015" cy="65.3354" r="2.082"/>
<circle cx="89.6463" cy="7.8638" r="1.041"/>
<circle cx="78.5380" cy="27.8474" r="1.279"/>
<circle cx="50.7460" cy="81.7465" r="1.950"/>
<circle cx="66.0000" cy="41.0352" r="1.315"/>
<circle cx="74.5459" cy="8.5792" r="0.653"/>
<circle cx="75.6457" cy="21.9175" r="1.032"/>
<circle cx="77.9093" cy="14.9268" r="0.882"/>
<circle cx="77.4450" cy="57.3872" r="1.994"/>
<circle cx="70.7173" cy="71.5616" r="2.153"/>
<circle cx="27.8957" cy="84.7055" r="1.456"/>
<circle cx="20.0819" cy="68.5915" r="0.794"/>
<circle cx="75.4703" cy="52.0436" r="1.853"/>
<circle cx="81.8204" cy="21.7699" r="1.218"/>
<circle cx="60.8575" cy="58.7756" r="1.650"/>
<circle cx="82.1433" cy="63.7395" r="2.197"/>
<circle cx="17.3111" cy="90.8498" r="1.341"/>
<circle cx="63.5048" cy="78.4871" r="2.135"/>
<circle cx="83.7774" cy="16.5567" r="1.112"/>
<circle cx="22.7201" cy="93.1369" r="1.562"/>
<circle cx="35.2177" cy="86.5811" r="1.712"/>
<circle cx="3.5432" cy="87.5002" r="0.856"/>
<circle cx="89.0367" cy="20.0100" r="1.385"/>
<circle cx="86.6958" cy="30.3702" r="1.588"/>
<circle cx="96.3791" cy="10.4382" r="1.288"/>
<circle cx="87.7445" cy="24.9609" r="1.465"/>
<circle cx="85.0618" cy="4.1412" r="0.821"/>
<circle cx="7.4479" cy="96.3395" r="1.218"/>
<circle cx="8.1111" cy="85.3589" r="0.926"/>
<circle cx="75.0621" cy="42.9446" r="1.615"/>
<circle cx="71.9383" cy="37.6450" r="1.376"/>
<circle cx="80.5132" cy="35.1953" r="1.553"/>
<circle cx="78.8101" cy="69.2724" r="2.224"/>
<circle cx="67.8224" cy="63.1629" r="1.924"/>
<circle cx="80.3506" cy="45.1521" r="1.800"/>
<circle cx="86.4133" cy="59.2475" r="2.197"/>
<circle cx="94.7663" cy="22.4312" r="1.588"/>
<circle cx="28.3168" cy="90.4103" r="1.624"/>
<circle cx="81.6837" cy="51.1273" r="1.968"/>
<circle cx="71.4260" cy="29.4968" r="1.121"/>
<circle cx="74.6097" cy="74.9196" r="2.241"/>
<circle cx="67.9133" cy="52.0455" r="1.668"/>
<circle cx="70.7810" cy="47.0814" r="1.615"/>
<circle cx="3.6519" cy="82.4606" r="0.715"/>
<circle cx="10.7237" cy="91.1285" r="1.165"/>
<circle cx="2.9208" cy="92.8428" r="0.988"/>
<circle cx="89.9240" cy="65.3449" r="2.250"/>
<circle cx="89.2120" cy="13.3762" r="1.174"/>
<circle cx="88.2162" cy="72.9249" r="2.250"/>
<circle cx="95.1207" cy="29.7411" r="1.774"/>
<circle cx="14.6283" cy="95.4201" r="1.394"/>
<circle cx="41.0632" cy="88.8921" r="1.897"/>
<circle cx="87.3473" cy="53.3497" r="2.118"/>
<circle cx="86.9100" cy="48.1833" r="2.003"/>
<circle cx="74.1791" cy="81.0487" r="2.250"/>
<circle cx="96.4581" cy="15.7267" r="1.456"/>
<circle cx="69.3084" cy="86.3756" r="2.250"/>
<circle cx="97.4575" cy="5.5052" r="1.191"/>
<circle cx="17.3636" cy="80.7518" r="1.059"/>
<circle cx="56.1944" cy="81.2547" r="2.065"/>
<circle cx="82.1767" cy="75.4781" r="2.250"/>
<circle cx="59.2301" cy="85.9360" r="2.179"/>
<circle cx="66.3482" cy="74.0966" r="2.118"/>
<circle cx="84.3079" cy="68.6603" r="2.250"/>
<circle cx="80.7207" cy="82.7150" r="2.250"/>
<circle cx="27.3018" cy="96.4209" r="1.756"/>
<circle cx="94.5693" cy="51.9206" r="2.206"/>
<circle cx="93.6632" cy="59.3367" r="2.250"/>
<circle cx="35.2569" cy="93.6703" r="1.879"/>
<circle cx="40.2203" cy="96.6778" r="2.047"/>
<circle cx="86.2532" cy="42.8709" r="1.871"/>
<circle cx="87.5503" cy="35.5607" r="1.756"/>
<circle cx="87.6815" cy="80.2999" r="2.250"/>
<circle cx="95.2215" cy="66.0932" r="2.250"/>
<circle cx="92.0604" cy="86.9649" r="2.250"/>
<circle cx="46.7426" cy="94.7321" r="2.135"/>
<circle cx="55.1530" cy="91.6769" r="2.215"/>
<circle cx="92.8930" cy="2.6236" r="0.971"/>
<circle cx="68.7569" cy="80.9775" r="2.250"/>
<circle cx="66.3254" cy="90.9375" r="2.250"/>
<circle cx="95.1826" cy="74.8147" r="2.250"/>
<circle cx="72.7910" cy="95.5159" r="2.250"/>
<circle cx="92.8699" cy="46.7280" r="2.091"/>
<circle cx="79.7248" cy="91.3207" r="2.250"/>
<circle cx="92.2139" cy="37.9713" r="1.897"/>
<circle cx="74.1603" cy="90.0223" r="2.250"/>
<circle cx="54.3945" cy="96.9230" r="2.250"/>
<circle cx="96.8070" cy="40.9261" r="2.056"/>
<circle cx="60.8902" cy="91.3246" r="2.250"/>
<circle cx="96.2105" cy="34.8489" r="1.932"/>
<circle cx="53.8344" cy="86.8018" r="2.109"/>
<circle cx="85.8944" cy="86.2313" r="2.250"/>
<circle cx="63.9544" cy="95.8529" r="2.250"/>
<circle cx="84.6688" cy="92.7593" r="2.250"/>
<circle cx="91.5759" cy="91.9633" r="2.250"/>
<circle cx="92.0236" cy="97.2547" r="2.250"/>
<circle cx="94.1845" cy="82.1069" r="2.250"/>
<circle cx="61.6022" cy="72.2200" r="1.994"/>
<circle cx="96.8559" cy="88.9415" r="2.250"/>
<circle cx="96.7715" cy="95.4637" r="2.250"/>
<circle cx="80.9676" cy="97.2891" r="2.250"/>
<circle cx="64.4424" cy="83.7413" r="2.224"/></g></svg>